<?xml version="1.0" encoding="utf-8"?>
<!-- Generator: Adobe Illustrator 27.5.0, SVG Export Plug-In . SVG Version: 6.00 Build 0)  -->
<svg version="1.1" id="Layer_1" xmlns="http://www.w3.org/2000/svg" xmlns:xlink="http://www.w3.org/1999/xlink" x="0px" y="0px"
	 viewBox="0 0 3881.01 2656.6" style="enable-background:new 0 0 3881.01 2656.6;" xml:space="preserve">
<style type="text/css">
	.st0{fill:#2B2A29;}
	.st1{fill:#E4B481;}
	.st2{fill:#847040;}
	.st3{fill:#857040;}
	.st4{fill:#E3B381;}
	.st5{fill:#E2B380;}
	.st6{fill:#D7AA79;}
	.st7{fill:#897244;}
	.st8{fill:#D9AC7A;}
	.st9{fill:#CCA273;}
	.st10{fill:#D6AA79;}
	.st11{fill:#D4A877;}
	.st12{fill:#CBA272;}
	.st13{fill:#D0A575;}
	.st14{fill:#D8AB7A;}
	.st15{fill:#C99F71;}
	.st16{fill:#BE9967;}
	.st17{fill:#B89367;}
	.st18{fill:#C59D6F;}
	.st19{fill:#C79E70;}
	.st20{fill:#E1B27F;}
	.st21{fill:#C39C6B;}
	.st22{fill:#BD976A;}
	.st23{fill:#B59164;}
	.st24{fill:#AC8A5E;}
	.st25{fill:#C59D6E;}
	.st26{fill:#AF8D60;}
	.st27{fill:#C79E6F;}
	.st28{fill:#CDA272;}
	.st29{fill:#AA885D;}
	.st30{fill:#DFB17F;}
	.st31{fill:#BA9468;}
	.st32{fill:#9A804F;}
	.st33{fill:#A8875C;}
	.st34{fill:#C29A6D;}
	.st35{fill:#AD8A60;}
	.st36{fill:#C0996B;}
	.st37{fill:#A7865C;}
	.st38{fill:#B48F64;}
	.st39{fill:#B89365;}
	.st40{fill:#C19A6C;}
	.st41{fill:#B79166;}
	.st42{fill:#A9875D;}
	.st43{fill:#B39061;}
	.st44{fill:#AB8860;}
	.st45{fill:#BA9666;}
	.st46{fill:#5A4733;}
	.st47{fill:#AA875F;}
	.st48{fill:#C39B6D;}
	.st49{fill:#FDFDFD;}
	.st50{fill:#201F1E;}
	.st51{fill:#A98A58;}
	.st52{fill:#AF8E5D;}
	.st53{fill:#B39160;}
	.st54{fill:#896D4E;}
	.st55{fill:#AE8B61;}
	.st56{fill:#987D4D;}
	.st57{fill:#281F17;}
	.st58{fill:#CAA172;}
	.st59{fill:#A38555;}
	.st60{fill:#B08F5E;}
	.st61{fill:#A58757;}
	.st62{fill:#867041;}
	.st63{fill:#867141;}
	.st64{fill:#B2905F;}
	.st65{fill:#2D2C2B;}
	.st66{fill:#2C2B2A;}
	.st67{fill:#DFB07F;}
	.st68{fill:#DEB07F;}
	.st69{fill:#E1B280;}
	.st70{fill:#D8AB7C;}
	.st71{fill:#DCAF7E;}
	.st72{fill:#CDA273;}
	.st73{fill:#D2A776;}
	.st74{fill:#BA9467;}
	.st75{fill:#BA9469;}
	.st76{fill:#D4152C;}
</style>
<g>
	<path class="st0" d="M2493.18,1554.02v820.34c0,3.09-0.04,6.19-0.05,9.27c-0.02,0.02-0.05,0.05-0.07,0.07v-2.09H1356.81
		c-0.2-2.03,0.14-5.12,0.14-9.82c-0.02-271.53-0.07-543.06-0.01-814.57c1.65-3.15,3.25-1.57,4.61,0.17
		c1.42,1.82,1.87,4.11,2.49,6.29c24.01,83.08,64.57,157.16,121.36,222.29c31.54,36.19,67.19,67.87,106.66,95.29
		c43.96,30.52,91.18,54.6,141.7,72.07c38.08,13.16,77.16,22.29,117.2,27.16c16.55,2,33.12,3.95,49.83,3.82
		c2.71-0.02,5.33,0.54,7.88,1.41c9.64,2.35,19.28,2.08,28.91,0.16c3.38-0.97,6.82-1.57,10.36-1.62
		c38.28-0.58,75.91-6.3,113.06-15.19c90.22-21.6,170.68-62.64,241.34-122.67c57.01-48.45,102.91-105.94,137.87-172.14
		c20.78-39.36,36.89-80.49,48.21-123.53c0.73-2.75,0.49-6.45,4.6-7.18C2493.07,1547.03,2493.18,1550.53,2493.18,1554.02z"/>
	<path class="st1" d="M1906.79,1987.6c-9.63-0.72-19.26-1.43-28.88-2.15c-59.92-4.48-117.87-17.72-173.3-40.83
		c-145.9-60.83-251.29-163.61-316.46-307.62c-11.88-26.25-20.71-53.6-28.97-81.15c-1.93-1.62-2.73-3.52-1.48-5.94
		c2.18-0.61,3.43,1.03,4.87,2.08c37.89,27.36,80.75,41.05,126.75,46.07c16.62,1.81,33.31,2.34,50.01,1.43
		c3.88-0.21,5.82,0.94,7.63,4.33c21.61,40.51,49.03,76.68,82.42,108.17c63.9,60.28,138.93,98.84,225.87,112.5
		c122.78,19.3,234.08-9.19,332.35-85.09c74.54-57.58,123.94-132.82,149.58-223.54c2.2-7.78,2.12-7.83,9.58-5.67
		c21.94,6.34,43.92,6.14,65.85,0.08c3.82-1.06,6.09-0.47,9.02,2.46c18.19,18.15,40.32,26.43,66,25.12c1.84-0.09,3.68-0.21,5.98-0.35
		c-0.21,2.18-0.4,4.1-0.58,6.03c-6.14,20.68-11.97,41.45-19.41,61.75c-66.33,181.19-221.77,319.92-409.53,365.39
		c-37.92,9.18-76.31,14.79-115.32,16.15c-3.28,0.11-6.54,0.59-9.81,0.9C1928.22,1988.76,1917.5,1988.93,1906.79,1987.6z"/>
	<path class="st1" d="M2607.57,1403.21c-1.37-12.29-5.86-23.44-11.67-34.23c-3.61-6.71-8.92-12.45-11.54-19.67
		c-6.09-16.8-19.21-23.21-35.78-24.63c-17.51-1.51-34.41,2.54-51.43,5.54c-4.92,0.87-9.95,2.42-15.22,0.71
		c1.01-2.86,3.42-3.85,5.32-5.27c9.39-7.04,19.04-13.77,27.23-22.28c9.98-10.37,17.23-21.86,17.16-37.07
		c-0.05-8.57,5.13-13.99,13.11-16.8c6.62-2.33,13.41-1.63,20.2-1.41c8.08,0.27,9.48-1.95,6.14-9.53
		c-6.26-14.14-18.5-20.5-36.11-18.48c-10.63,1.22-21.19,3.6-31.86,4.03c-33.42,1.35-58.21,16.74-76.1,44.5
		c-7.01,10.89-13.39,22.23-21.66,32.3c-6.35,7.73-14.01,13.4-24.01,15.17c-28.1,4.96-52.75-1.91-72.86-22.5
		c-9.65-9.87-19.13-19.92-29.21-29.36c-36.03-33.71-75.3-63.44-114.39-93.41c-18.95-14.52-38.79-28.01-55.33-45.47
		c-14.86-15.66-26.13-33.87-37.09-52.31c-2.34-3.95-4.55-8.04-8.9-12.2c0.21,3.76,0.22,6.19,0.49,8.59
		c1.65,15.01,1.41,30.05,0.85,45.1c-0.24,6.35-1.34,12.67-2.08,19c-0.17,1.47-0.59,3.14-2.05,3.55c-1.86,0.53-3.01-1.05-3.92-2.42
		c-1.94-2.91-3.89-5.83-5.64-8.85c-4.4-7.58-10.02-14.05-16.92-19.47c-17.04-13.39-34.96-25.42-53.89-35.95
		c-1.98-1.1-3.9-2.77-6.61-2.6c8.92,46.63,3.14,89.7-27.87,128.11c-1.52-2.73-2.47-4.55-3.53-6.31
		c-16.68-28.02-37.77-51.41-68.22-64.97c-10.63-4.74-10.64-4.71-9.69,6.45c0.09,1.03,0.1,2.07,0.16,3.09
		c2.55,39.29-10.76,73.16-35.47,103.06c-22.23,26.93-49.56,48.19-77.18,69.13c-27.58,20.91-55.76,41.05-80.63,65.32
		c-31.82,31.08-50.22,67.49-46.22,113.12c2.04,23.4,4.29,46.78,6.11,70.19c2.47,32.01,3.28,63.89-10.7,94.04
		c-0.84,1.82-0.64,3.02,0.58,4.42c5.73,6.48,11.44,12.98,17.07,19.55c1.83,2.13,2.99,2.05,4.63-0.31
		c16.69-24.06,28.12-50.13,31.39-79.53c3.34-30.08-1.13-59.65-5.77-89.15c-5.6-35.56,0.31-68.42,20.78-98.33
		c12.56-18.36,28.17-33.86,45.03-48.19c24.83-21.09,51.85-39.37,77.04-60c14.5-11.89,28.7-24.14,39.83-39.45
		c0.33-1.05-0.12-1.5-0.85-1.71h-0.01c-0.09-0.02-0.19-0.05-0.28-0.07c-0.09-0.01-0.17-0.04-0.27-0.05
		c-3.51,0.72-5.53,3.5-7.79,5.83c-11.82,12.14-24.83,22.86-38.19,33.26c-25.72,19.98-52.9,38.02-77.89,58.94
		c-18.53,15.51-36.25,31.88-49.96,52c-8.15,11.98-15.64,24.39-17.72,37.34c0.16-9.12,0.66-19.98,4-30.53
		c6.85-21.63,20.96-38.04,37.6-52.64c18.03-15.81,38.06-28.91,57.62-42.65c26.85-18.84,53.57-37.82,74.9-63.21
		c20.03-23.85,33.55-50.76,38.6-81.7c1.45-8.88,2.64-17.79,2.29-27.79c6.12,4.08,10.68,8.14,14.77,12.73
		c31.36,35.14,45.28,76.2,42.7,123.21c-1.84,33.4-13,63.08-33.28,89.51c-16.5,21.51-36.36,39.79-55.96,58.35
		c-17.78,16.86-36.11,33.27-49.24,54.37c-6.87,11.04-11.15,22.88-12.69,35.82c-2.99,24.82-7.99,49.22-16.36,72.85
		c-9.12,25.77-21.77,49.38-42.19,68.18c-8.02,7.39-16.92,13.34-27.45,16.81c5.05-8.17,9.63-16.43,13.96-24.83
		c19.34-37.45,25.65-77.68,24.29-119.22c-0.69-20.97-2.6-41.93-1.94-62.94c0.36-11.54,3.53-22.22,11-31.51
		c9.84-12.22,20.46-23.72,30.94-35.35c21.55-23.89,42.53-48.24,59.94-75.42c17.68-27.63,31.64-56.89,38.69-89.14
		c0.66-2.99,1.78-5.98,0.52-9.08c-0.16-0.28-0.33-0.54-0.53-0.75c-0.1-0.11-0.21-0.21-0.32-0.3c-0.31-0.26-0.68-0.45-1.13-0.53
		c-0.05-0.02-0.1-0.02-0.15-0.04c-0.09,0.05-0.17,0.11-0.26,0.17c-6.74,4.37-7.36,11.96-9.7,18.66c-0.01,0.02-0.01,0.04-0.02,0.06
		c0.02,0.07,0.06,0.15,0.09,0.21c0.21,0.47,0.48,0.92,0.84,1.29c0.31,1.5-0.22,2.81-0.75,4.17c-13.86,35.78-32.35,68.86-56.76,98.58
		c-17.31,21.07-37.21,39.68-55.92,59.42c-22.33,23.58-32.55,50.97-28.36,83.49c3.71,28.73,4.78,57.53,0.77,86.32
		c-5.99,43.02-21.77,81.37-54.26,111.5c-3.18,2.93-2.78,4.22,0.25,6.85c37.41,32.51,79.47,57.08,126.02,74.01
		c9.6,3.49,9.59,3.44,14.73-5.56c1.32-2.33,2.76-4.6,4.29-6.78c3.85-5.44,8.15-10.45,14.48-15.5c0.27,12.74,0.92,23.79,5.2,34.32
		c1.82,4.48,4.33,7.27,9.37,7.16c2.34-3.97-0.67-7.04-1.89-10.33c-5.3-14.23-6.97-27.79,2.26-41.64
		c5.15-7.72,9.75-16.05,11.41-24.92c0,4.11,0.52,8.45,0.75,12.77c1.13,21.23,4.66,42.04,12.92,61.81c1.44,3.43,2.88,6.89,6.78,8.33
		c2.45,0.36,4.9,0.74,7.35,1.05c10.86,1.4,10.86,1.39,10.01-9.33c-0.09-1.03-0.07-2.07-0.14-3.09c-0.83-15.33,4.6-29.06,10.73-42.66
		c7.03-15.55,15.11-30.63,20.87-46.74c4.47-12.51,7.99-25.25,5.41-38.67c-2.28-11.85-7.6-22.62-13.57-32.96
		c-10.19-17.64-20.62-35.15-31.23-52.54c-12.19-19.99-5.12-38.55,7.83-50.85c10.44-9.92,22.75-16.94,35.5-23.28
		c18.61-9.27,37.05-18.78,54.76-29.74c32.07-19.86,51.94-48.63,62.42-84.35c1.22-4.17,4.07-9.61,0.05-12.73
		c-3.13-2.41-6.79,2.38-10.32,3.69c-1.15,0.42-2.2,1.13-3.29,1.69c-21.37,11.02-43.71,15.4-67.54,10.06
		c-10.33-2.31-10.6-2.35-5.69-11.58c16.69-31.41,16.88-63.38,3.95-95.99c-4.97-12.55-11.27-24.39-18.73-35.77
		c13.79,6.77,26.79,14.46,38.39,24.36c13.4,11.41,19.81,25.82,19.5,43.49c-0.23,13.67-2.24,27.06-4.85,40.42
		c-1.29,6.62-0.95,6.88,5.8,6.12c20.27-2.25,36.27-12.48,50.25-26.61c3.59-3.62,7.44-6.98,11.51-10.75
		c8.71,29.15,12.97,58.14-0.66,87.14c-0.79,1.71-2.96,3.7-1.26,5.56c1.22,1.34,3.55,0.41,5.36,0.14
		c20.86-3.2,39.06-12.57,55.91-24.69c4.61-3.33,5.62-2.61,7,2.49c4.65,17.14,1.24,33.01-6.64,48.34
		c-2.59,5.05-5.37,10.01-7.94,14.77c1.23,1.51,2.28,1.04,3.24,0.95c16.48-1.39,32.54-4.9,48.37-9.51
		c23.33-6.8,45.45-16.96,68.44-24.74c18.46-6.25,36.53-8.44,53.41,4.38c0.07,0.02,0.15,0.05,0.22,0.07h0.01
		c0.17,0.06,0.35,0.12,0.52,0.17h0.01c0.09,0.04,0.17,0.06,0.26,0.09c29.36,9.56,59.37,14.86,90.41,14.31
		c22.11-0.4,43.39-4.12,63.41-13.66c4.5-2.14,6.35-1.06,8.36,3.15c5.58,11.67,14.46,20.3,25.72,26.64
		c5.41,3.03,11.09,5.42,16.58,8.23c14.61,7.46,24.16,18.61,27.03,35.26c1.6,9.27,4.49,18.31,2.75,27.86
		c0.16,0.36,0.33,0.68,0.56,0.94c0.07,0.09,0.16,0.17,0.25,0.25c0.36,0.3,0.82,0.45,1.45,0.35c3.74-4.35,5.72-9.51,6.36-15.12
		c1.16-10.24,3.19-20.25,5.63-30.29c6.42-26.48-5.37-47.92-30.84-57.43c-5.98-2.23-12.08-4.08-18.05-6.32
		c-6.63-2.49-13.67-4-20.36-7.99c4.13-3.8,8.77-5.34,13.51-6.52c19.42-4.79,38.71-3.29,57.03,3.95c10.73,4.23,19.86,3.54,29.3-2.07
		c1.4-0.83,2.97-1.4,4.49-2.03c11.25-4.6,17.79-2.29,23.49,8.38c1.84,3.44,3.49,7,5.46,10.37c1,1.71,2.17,4.11,4.42,3.84
		c2.64-0.31,3.01-3.2,3.5-5.27C2607.72,1412.72,2608.1,1408.03,2607.57,1403.21z M1812.47,1709.16
		c-21.56,15.94-46.23,24.42-72.76,28.95c48.52-37.1,87.02-80.75,96.15-145.7c6.15,13,9.8,24.99,11.52,37.57
		C1851.95,1663.5,1839.1,1689.46,1812.47,1709.16z M2228.34,1380.91c-11.42-1.55-22.81-3.41-33.95-6.46
		c-4.52-1.24-6.89,0.1-7.81,4.87c-2.1,11.05-7.27,20.51-15.81,27.96c-1.79,1.56-3.79,3.8-6.48,2.46c-2.46-1.22-1.81-4-1.65-6.15
		c0.52-7.14-0.92-13.94-3.09-20.65c-5.39-16.57-13.44-31.81-23.53-45.97c-1.99-2.78-3.8-5.91-7.34-7.27
		c-6.83,18.05-17.42,33.45-32.14,48.65c2.19-46.43-7.51-86.22-46.2-115c-1.3,7.63-0.99,14.43-2.49,21.02
		c-2.99,13.14-8.82,24.77-17.79,34.79c-1.13,1.26-2.26,3.67-4.34,2.52c-1.47-0.82-0.72-3.04-0.48-4.61
		c0.84-5.49,1.78-10.97,2.7-16.45c4.79-28.67-4.69-53.99-18.41-78.3c-6.67-11.82-14.8-22.64-23.84-33.4
		c4.45-1.35,7.84,0.27,11.13,1.58c23.43,9.27,44.8,22.17,62.78,39.73c28.62,27.94,61.08,50.86,93.07,74.45
		c8.29,6.11,17.09,11.54,25.24,17.83c40.85,31.47,87.72,50.86,135.71,68.05c-1.27,0.36-2.56,0.72-3.84,1.06
		C2282.64,1388.06,2255.48,1384.58,2228.34,1380.91z"/>
	<path class="st1" d="M2253.5,890.43c-3.43-8.66-9.02-15.75-16.48-21.14c-23.35-16.91-49.48-22.73-77.71-17.62
		c-19.88,3.6-38.35,12.06-57.49,18.24c-28.89,9.3-58.07,15.3-88.53,9.4c-10.36-2.02-20.51-4.75-31.19-10.27
		c18.27-8.24,36.62-7.47,54.42-9.67c-0.35-3.59-3.3-3.77-5.81-4.23c-3.87-0.69-7.79-0.47-11.7-0.1
		c-12.31,1.16-24.58,2.54-36.13,7.44c-2.49,1.05-4.58,1.22-4.35-2.47c0.69-11.74,4.47-19.15,15.54-22.58
		c3.97-1.22,8.05-1.48,12.2-1.5c14.81-0.05,29.61,0.14,44.42-1.18c30.24-2.66,53.11-16.97,69.2-41.51
		c-2.46,15.39-9.74,28.08-21.94,38.59c-9.02,7.76-19.14,13.47-30.08,17.99c-2.41,1-6.56,1.19-5.12,5.85
		c14.55-3.12,27.45-9.72,39-18.98c20.44-16.37,27.34-37.98,24.53-64.66c-3.14,2.61-5.46,4.52-7.74,6.46
		c-8.36,7.05-17.07,13.6-26.36,19.39c-20.49,12.77-42.16,20.51-66.8,15.85c-10.95-2.08-21.52-5.58-32.03-9.09
		c-23.15-7.73-45.69-6.79-67.97,3.2c-6.17,2.77-12.61,4.97-18.98,7.3c-1.67,0.62-3.64,1.48-5.26-0.07c-1.83-1.76-0.9-3.96-0.23-5.79
		c3.69-10.11,10.22-17.83,19.97-22.52c15.96-7.66,33-8.12,50.19-7.01c9.25,0.59,18.48,1.84,27.73,1.94
		c28.28,0.3,40.04-13.23,43.99-39.76c0.46-3.09,2.07-7.5-0.74-9.19c-2.4-1.45-5.42,2.04-7.76,3.87
		c-10.43,8.14-22.22,12.46-35.19,9.69c-14.18-3.03-28.52-3.82-42.81-5.58c-16.1-1.98-30.66-7.68-41.95-20.08
		c-2.62-2.87-3.09-5.39-1.1-8.8c7.14-12.17,9.53-25.67,11.07-39.48c1.56-13.97,0.17-28.03,2.2-41.97
		c2.56-17.59,7.63-33.79,23.57-44.22c0.19-0.32,0.48-0.47,0.87-0.54c0.01,0,0.02-0.01,0.04-0.01c1.21-0.21,3.02,0.33,2.87-1.66
		c0-0.04,0-0.09-0.01-0.14c-0.01-0.15-0.04-0.31-0.07-0.48c-2.17-1.94-4.63-1.65-6.98-0.66c-4.65,1.94-8.4,5.16-11.65,8.96
		c-8.04,9.38-13.5,20.08-16.27,32.69c-7.35-14.35-9.06-29.47-9.61-44.65c-0.3-7.94-3.13-13.75-9.27-18.51
		c-7.51-5.85-15.39-11-23.57-14.05c9.5,0.64,18.58,5.12,27.78,9.33c11.06,5.05,22.23,9.86,33.59,14.22
		c6.29,2.41,12.22,2.88,18.6,0.43c6.53-2.51,13.34-4.33,19.91-6.76c4.39-1.63,7.16-0.57,9.9,3.28
		c9.71,13.62,21.11,25.83,32.62,37.92c12.12,12.74,27.32,14.49,43.33,10.55c7.96-1.95,14.33-6.54,17.11-14.6
		c-3.37,13.28-3.14,27.58-11.77,41.01c-3.27-9.59-9.65-14.3-17.02-17.91c-5.01-2.44-10.18-4.52-15.53-6.1
		c-12.26-3.62-24.5-7.26-36.6-11.39c-2.33-0.8-4.68-1.72-7.22-0.94c-0.01,0.01-0.04,0.01-0.05,0.02c-0.31,0.15-0.58,0.31-0.82,0.51
		c-0.43,0.37-0.68,0.87-0.54,1.62c3.2,1.35,6.4,2.78,9.64,4.05c15.9,6.19,32.23,11.22,47.85,18.19c9.27,4.13,17.11,8.92,17.68,20.43
		c0.1,1.92,0.45,4.6,2.99,4.76c2,0.14,2.88-2.14,3.76-3.7c10.63-18.71,16.44-38.71,14.12-60.29c-0.63-5.86,0.99-8.71,5.49-11.42
		c12.9-7.76,20.19-19.61,24.01-33.86c2.35-8.77-0.06-14.34-8.24-18.19c-6.04-2.85-12.52-3.9-19.18-4.16
		c-23.57-0.93-46.63-5.01-69.48-10.68c-5-1.24-8.41-3.24-10.03-8.44c-1.29-4.13-4.12-7.56-7-10.83
		c-11.69-13.23-26.86-20.97-43.13-26.65c-35.06-12.24-71.24-15.18-107.9-10.85c-32.04,3.79-62.11,12.94-85.65,36.83
		c-3.69,3.75-6.67,2.7-9.85-0.82c-9.86-10.92-20.74-20.64-33.78-27.7c-27.24-14.75-56.54-19.66-87.16-17.83
		c-6.26,0.37-12.67,0.42-18.59,3.27c0.98,2.15,2.94,2.61,4.59,3.19c13.97,4.95,21.79,15.64,27.08,28.7
		c3.75,9.2,5.98,18.83,7.56,28.59c3.81,23.59,11.11,44.72,37.92,53.05c-14.87,9.46-23.68,22.53-31.3,36.56
		c-3.14,5.79-6.11,11.67-9.22,17.47c-6.02,11.3-12.27,22.53-21.82,31.28c-23.7,21.7-49.18,26.83-76.62,10.17
		c-2.24-1.36-4.42-3.08-7.25-3.3c-1.1,1.68-0.61,3.58-0.82,5.37c-0.72,5.04-0.64,10.08-0.04,15.13
		c1.86,26.19,15.56,40.79,41.5,44.75c10.52,1.61,20.85-0.04,31.82-0.95c-3.14,8.31-8.45,14.61-13.61,20.87
		c-9.9,12-15.08,25.62-16.49,41.07c-1.21,13.09-2.02,26.25-4.68,39.18c-4.48,21.8-16.66,33.48-38.58,36.36
		c-4.47,0.59-9.04,0.52-13.56,0.4c-3.75-0.09-5.18,1.27-4.89,5.08c0.68,9.07,5.31,15.43,13.16,19.47c7.05,3.62,14.64,5.37,22.59,5.3
		c1.04,0.22,2.09,0.59,3.08,0.56c0.01,0,0.02,0,0.02,0c0.84-0.04,1.66-0.36,2.38-1.3c-0.07-0.17-0.15-0.35-0.22-0.49
		c-0.01-0.02-0.02-0.05-0.04-0.07c-1.56-2.99-4.89-2.68-7.52-3.4c-8.51-2.28-16.5-5.3-22.73-13.16c14.29,4.81,27.96,6.14,42.11,4
		c20.14-3.04,39.12-9.22,56.79-19.4c0.41-0.27,0.79-0.57,1.16-0.89c-0.16,0.16-0.33,0.31-0.51,0.45
		c-7.57,5.58-14.48,11.93-21.03,18.67c-4.52,4.65-9.76,7.94-16.26,9.19c-2.36,0.45-5.07,0.71-6.26,3.32
		c-0.04,0.06-0.06,0.14-0.07,0.21c-0.05,0.09-0.09,0.19-0.12,0.28c0.05,0.43,0.21,0.74,0.48,0.95c0.11,0.09,0.22,0.15,0.37,0.2h0.01
		c0.09,0.04,0.19,0.06,0.3,0.07c2.28-0.09,4.58,0.45,6.82-0.37c4.87-0.58,5.48,1.34,2.96,5.08c-1.5,2.21-2.96,4.47-4.48,6.67
		c-13.98,20.18-18.41,42.26-13.86,66.39c3.4,18,7.08,35.99,5.41,54.54c-1.81,20.08-12.72,33.61-31.98,39.44
		c-5.77,1.74-11.67,2.54-17.62,2.98c-5.11,0.38-5.79,2.59-3.96,6.94c4.8,11.42,12.97,19.15,25.05,21.8
		c20.54,4.5,39.7-0.64,57.69-10.29c5.42-2.92,5.89-0.94,6.8,3.43c7.92,37.59-15.59,66.41-54.26,66.41c-8.35,0-8.81,0.69-5.91,8.7
		c7.5,20.74,29.87,36.82,52.58,38.3c19.73,1.27,37.5-4.13,53.71-14.97c5.02-3.37,7.97-2.36,10.83,2.54
		c10.41,17.8,15.84,36.93,16.1,57.58c0.2,16.43-5.43,30.6-15.98,42.99c-1.01,1.2-2.59,2.76-1.32,4.33c1.13,1.39,3.15,0.61,4.71,0.28
		c20.6-4.13,40.13-10.91,56.91-23.99c20.85-16.26,31.25-37.7,31.12-64.22c-0.1-20.71-6.93-39.14-18.87-55.8
		c-6.72-9.38-14-18.35-20.56-27.84c-15.54-22.47-21.82-47.35-17.61-74.43c3.84-24.62,16.19-44.18,36.86-58.27
		c2.71-1.84,5.49-4.33,9.79-3.23c-2.39,4.52-4.68,8.65-6.77,12.87c-12.25,24.72-14.18,49.95-3.9,75.85
		c6.58,16.58,16.16,31.42,26.02,46.16c14.23,21.27,31.33,40.94,36.84,67.24c0.66-0.59,1.04-0.78,1.14-1.06
		c0.58-1.53,1.13-3.09,1.62-4.66c9.16-28.88,9.77-57.75,0.64-86.86c-7.08-22.52-11.36-45.57-9.46-69.34
		c0.72-9.12,2.4-18.09,8.52-25.78c-0.59,25.05,9.54,45.47,26.02,63.25c0.46,0.47,0.98,0.52,1.52,0.15c0.02-0.05,0.05-0.07,0.06-0.12
		v-0.01c0-0.01,0-0.01,0-0.01c1.57-3.24-0.83-5.39-2.4-7.6c-4.92-6.89-9.56-13.94-12.68-21.86c-3.25-8.26-5.31-16.71-3.45-25.7
		c1.6,0.12,2.09,1.09,2.75,1.83c20.34,22.99,40.68,45.96,60.78,69.15c9.82,11.33,20.28,22.16,29.06,34.42
		c-0.01,0.17-0.05,0.33-0.09,0.51c-0.05,0.22-0.12,0.45-0.16,0.67c-0.14,0.53-0.19,1.05,0.15,1.6c3.07,1.51,5.9,3.62,9.39,3.86
		c0-4.57,0.26-8.9-0.05-13.19c-1.91-26.91-10.21-51.9-22.88-75.61c-6.4-11.96-13.49-23.56-19.11-35.94
		c-5.74-12.63-6.85-25.21-1.2-38.2c2.86-6.57,5.25-13.35,7.86-20.04c0.42-0.99,0.02-1.41-0.66-1.65c-0.05-0.02-0.12-0.05-0.19-0.06
		c-0.14-0.05-0.27-0.09-0.42-0.11c-3.19,0.58-4.78,3.11-6.33,5.51c-4.44,6.9-7.51,14.39-9.37,22.6
		c-2.6-25.36,2.75-49.04,12.89-71.91c2.67,6.93,3.97,14.01,4.84,21.11c1.18,9.58,5.3,17.37,11.58,24.67
		c21.08,24.56,41.87,49.36,63.1,73.77c12.17,13.98,23.78,28.47,36.88,41.63c0.15,0.12,0.28,0.26,0.43,0.38
		c0.21,0.19,0.42,0.37,0.63,0.56c1.99,1.74,3.96,3.51,5.31,5.88c4.29,3.33,8.57,6.66,13.82,10.73c-6.64-25.6-16.07-48.7-27.9-70.85
		c-6.98-13.05-14.6-25.78-20.8-39.18c-6.36-13.77-5.42-28.08,1.04-41.77c2.66-5.63,6.68-10.08,14.03-8.31
		c0.22-0.32,0.35-0.66,0.35-1v-0.01c0.01-0.12,0-0.23-0.01-0.37c-0.04-0.17-0.1-0.36-0.19-0.54c-0.57-1.1-2.03-1.32-2.61-2.73
		c6.97-4.33,14.72-3.54,22.13-2.75c16.08,1.72,32.03,1.06,47.99-1.05c31.92-4.23,63.08-12.03,93.7-21.66
		c19.51-6.15,38.44-5.88,57.55,0.25c12.73,4.08,25.1,9.06,36.04,17c1.51,0.33,2.92,2.41,4.44,0.99
		C2255.39,893.66,2254.08,891.93,2253.5,890.43z M1864.47,756.89c1.72,5.07-1.6,7.24-7.39,5.52c-19.81-5.88-29.35-23.95-23.99-45.55
		c2.96-11.94,8.33-22.86,15.44-32.76c7.02-9.75,9.9-20.33,8.29-32.04c-1.55-11.25,1.66-21.16,7.46-30.51
		c7.68-12.41,17.43-22.94,29.12-31.65c2.23-1.66,4.37-3.77,8.44-3.64c-5.11,8-10.21,15.25-13.92,23.32
		c-4.44,9.66-7.42,19.63-7.2,30.37c0.51,23.94-2.97,47.06-12.27,69.38C1862.12,724.51,1858.84,740.36,1864.47,756.89z
		 M1970.15,513.94c6.11,2.91,6.31,6.09,1.04,10.57c-5.32,4.53-11.05,8.5-17.52,11.27c-1.11,0.31-2.23,0.54-3.35,0.72
		c-4.43,0.71-8.91,0.48-13.39,0.37c-0.15,0-0.3-0.01-0.45-0.01c-0.43-0.01-0.87-0.02-1.3-0.02c-5.26-1.1-10.49-2.56-14.7-5.91
		c-13.63-10.9-28.23-20.3-43.36-28.94c4.39-3.06,9.42-2.12,14.15-1.92c16.84,0.72,33.66,1.68,50.32,4.4
		C1951.62,506.1,1961.05,509.62,1970.15,513.94z M1680.03,524.36c-7.19-14.22-10.53-29.57-12.89-45.28
		c28.63,27.45,61.13,46.23,100.45,51.62c0.19,3.14-1.92,4.4-3.64,5.72c-21.64,16.48-48.71,16.07-70.53,2.98
		C1687.48,535.83,1683.14,530.5,1680.03,524.36z M1926.02,911.22c-0.69,4.37-1.5,8.7-2.57,14.92c-2.26-6.05-3.8-10.42-5.51-14.72
		c-4.57-11.54-10.22-22.5-18.42-31.93c-4.74-5.43-5.57-5.28-9.07,0.63c-12.1,20.46-27.01,38.9-41.63,57.53
		c-4.74,6.03-9.48,11.89-10.79,19.8c-0.74,4.45-3.35,4.81-6.52,2.13c-16.18-13.73-29.84-29.04-32.7-51.31
		c-0.89-6.88-1.98-7.32-7.5-3.25c-29.05,21.37-58.7,42.04-81.26,70.87c-17.2,22-30.16,46.09-36.68,73.43
		c-0.35,1.42,0.35,3.71-1.81,4.13c-1.61,0.32-2.36-1.42-3.18-2.55c-24.43-33.54-39.4-70.29-37.34-112.58
		c1.58-32.54,12.85-62.24,27.39-90.93c2.51-4.95,5.16-9.84,7.57-14.83c0.96-1.98,2.4-4.55,0.43-6.29c-2.04-1.78-4.19,0.31-6.05,1.45
		c-13.66,8.35-27.18,16.97-42.44,22.28c-3.22,1.13-6.37,2.81-10.76,2c15.12-22.06,17.96-47.45,22.37-72.3
		c5.36-30.29,17.43-57.36,37.44-80.79c1.56-1.82,3.06-3.67,5.33-6.43c-11.32,0.07-21.5-0.31-31.7,0.77
		c-7.41,0.78-14.83,1.05-22.11-0.94c-1.88-0.52-4.6-1.16-4.59-3.46c0.02-1.94,2.72-1.93,4.34-2.54
		c20.9-7.94,37.43-21.45,49.91-39.83c8.45-12.43,16.21-25.33,24.61-37.78c11.34-16.85,26.39-28.73,46.72-32.95
		c4.81-1,9.64-2.17,15.06-1.83c-1.01,3.49-3.79,5.38-5.95,7.63c-14.81,15.4-28.12,31.83-35.52,52.22
		c-2.03,5.59-3.25,11.47-4.79,17.22c-0.47,1.77-1.45,3.96,0.19,5.23c1.98,1.53,3.96-0.33,5.62-1.32
		c7.41-4.44,14.72-9.06,22.07-13.61c6.46-4.01,12.92-8.02,19.37-12.03c1.48,0.99,1.22,2.66,1.61,4.07
		c-1.93,13.68-8.26,25.31-16.83,35.87c-7.42,9.14-16.03,17.17-24.42,25.4c-21.59,21.17-33.65,46.89-37.61,76.68
		c-0.56,4.14,0.53,5.31,4.5,4.43c9.74-2.17,18.53-6.73,27.45-10.94c11.9-5.6,23.51-11.82,35.36-18.9c0.53,4.61-1.47,8.17-2.92,11.74
		c-9.17,22.72-20.71,44.34-30.81,66.64c-8.23,18.15-17.14,36.08-22.12,55.51c-3.69,14.43-2.91,28.53,3.69,42.16
		c1.76,3.62,3.13,4.22,6.07,1.16c15.98-16.53,35.3-28.17,55.95-37.88c25.36-11.93,44.37-30.99,59.93-53.88
		c1-1.47,1.42-3.41,3.8-4.53c0.73,12.15,1.15,24.06,2.23,35.92c1.39,15.3,5,30,13.21,43.29c2.61,4.23,4.26,5.83,8.8,1.31
		c19.83-19.68,38.64-40.07,50.8-65.63c1.87-3.91,3.55-3.25,6.45-0.99C1924.01,858.9,1930.51,883.07,1926.02,911.22z"/>
	<path class="st1" d="M1602.69,1532.7c-0.54-7.37-1.56-14.75-2.78-22.05c-2.67-15.82-5.33-31.66-11.11-46.75
		c-2.04-5.34-5.16-7.96-11.26-6.54c-4.39,1.01-8.98,1.21-13.5,1.6c-32.74,2.73-65.4,3.75-97.85-3.06
		c-50.17-10.52-74.62-39.49-75.46-90.49c-0.48-28.9,2.21-57.62,7.42-86.07c4.28-23.42,11.26-45.84,23.48-66.54
		c17.68-29.95,55.98-54.11,104.86-35.88c5.06,1.88,7.1-0.04,7.53-4.57c1.44-14.85,0.14-29.28-8.14-42.24
		c-10.95-17.15-33.14-24.73-56.43-19.63c-1.7,0.37-3.79,1.92-5.21,0.49c-1.56-1.56,0.26-3.45,0.89-5.07
		c25.71-66.1,41.52-134.42,45.19-205.33c2.35-45.48-0.2-90.5-13.76-134.51c-9.55-31-15.79-62.73-14.13-95.47
		c1.45-28.95,11.25-53.83,35.43-71.56c1.32-0.97,2.6-2.04,3.76-3.19c1.42-1.42,3.74-2.87,2.66-5.07c-0.95-1.97-3.54-1.81-5.57-1.7
		c-7.45,0.41-14.56,2.5-21.7,4.53c-47.29,13.44-78.93,42.7-91.95,90.81c-1.45,5.36-2.73,10.78-3.71,16.23
		c-0.96,5.43-1.46,10.96-2.31,17.7c-10.83-29.92-15.18-58.92-7.36-89.03c4.28-16.52,9.63-32.81,10.94-49.98
		c2.39-31.1-4.63-59.3-25.67-83.14c-1.76-1.99-3.76-3.84-5.9-5.39c-3.15-2.28-5.39-1.61-5.83,2.59c-1.35,13-6.92,24.46-13.28,35.58
		c-15.24,26.61-34.43,50.32-55.15,72.72c-18.64,20.15-31.05,43.12-33.87,70.51c-3.7,35.95,4.05,68.4,31.25,94.26
		c1.94,1.84,3.9,3.71,5.52,5.83c3.65,4.75,2.91,7.21-2.61,9.14c-5.23,1.84-10.62,3.32-15.75,5.38c-24.5,9.87-42.26,25.94-48.24,52.8
		c-3.33,14.95-1.63,29.51,3.24,43.78c6.54,19.16,16.24,36.47,31.24,50.38c6.72,6.24,8.75,5.58,12.19-2.72
		c3.08-7.4,6.06-14.85,9.38-22.15c16.89-37.33,75.59-47.09,105.46-21.03c13.66,11.93,20.65,27.52,24.66,44.64
		c7.89,33.7,5.57,67.63,0.87,101.41c-7.39,52.96-21.35,104.33-39,154.75c-2.61,7.47-5.54,14.83-8.6,23.01
		c-6.8-7.87-13.3-14.44-21-19.7c-24.36-16.65-51.01-13.89-70.51,8.21c-23.38,26.51-22.95,57.69-16.15,89.85
		c0.46,0.28,0.89,0.31,1.3,0.1c0.02-0.01,0.04-0.01,0.05-0.04c0.11-0.05,0.22-0.14,0.33-0.25c1.87-2.41,1.04-5.08,0.8-7.73
		c-1.61-18.85,1.5-36.24,15.91-49.96c11.7-11.16,27.68-12.89,41.53-4.58c5.34,3.2,10.07,7.19,13.78,12.25
		c14.54,19.81,21.44,42.46,24.69,66.46c0.25,1.82,0.05,3.62-1.86,5.6c-2.09-8.05-5.37-15.13-8.67-22.2
		c-1.46-3.11-2.67-6.61-6.71-7.5c-0.02,0.01-0.06,0.02-0.09,0.04c-0.1,0.04-0.2,0.07-0.3,0.12c-0.77,0.33-1.24,0.87-0.82,1.91
		c6.09,13.52,4.06,26.88-0.94,40.13c-2.04,5.42-5.63,7.99-11.96,6.99c-7.97-1.27-16.05-0.43-23.93,1.3
		c-27.28,6.03-43.95,26.92-45.99,57.46c-0.33,1.25-0.99,2.68,1.37,2.42c1.77-2.6,4.13-4.57,6.78-6.19
		c12.68-7.7,26.79-9.85,41.04-8.13c17.96,2.17,27.96,14.67,28.11,31.65c0.1,11.64,1.09,23.58,3.9,34.84
		c4.69,18.81,14.64,35.17,27.96,49.36c0.84,0.25,1.31-0.07,1.62-0.63c0.11-0.17,0.2-0.38,0.27-0.59c-0.01-0.04-0.01-0.09-0.02-0.12
		c-0.67-3.24-2.26-5.89-4.16-8.35c1.55,1.84,3.18,3.64,4.94,5.31c46.95,44.33,102.79,60.89,166.35,53.03
		c12.06-1.48,23.9-4.23,35.66-7.3c2.96-0.77,6.04-1.82,8.98,0.01c1.5,0.94,3.81,1.51,3.6,3.74c-0.2,1.89-2.34,2.1-3.84,2.64
		c-7.4,2.61-15.06,4.17-22.75,5.59c-2.93,0.53-6.12,0.64-7.88,3.67c-0.04,0.05-0.06,0.11-0.09,0.16c-0.01,0-0.01,0.01-0.01,0.01
		c0.15,0.82,0.42,1.41,1.04,1.45c0.01,0,0.01,0,0.01,0c0.25,0,0.54-0.07,0.9-0.26c12.4-0.42,24.57-2.57,36.58-5.36
		C1600.42,1545.28,1603.31,1541.03,1602.69,1532.7z M1422.94,875.48c-14.73-15.97-31.33-29.3-52.68-35.26
		c-21.6-6.04-41.55-1.29-60.25,10.24c-7.21,4.45-13.73,9.81-20.22,15.23c-1.46,1.22-2.93,3.71-5.13,2.51
		c-2.38-1.29-1.51-4.14-1.19-6.24c1.52-9.9,6.26-18.34,13.13-25.39c18.48-18.97,41.53-23.85,66.92-20.95
		c3.06,0.35,6.04,1.37,9.09,1.71c2.12,0.24,4.69,1.15,6.2-1.31c1.27-2.08-0.09-4-0.94-5.79c-2.77-5.85-7.05-10.59-11.37-15.32
		c-13.19-14.48-26.59-28.78-39.42-43.56c-13.51-15.58-24.09-32.87-27.71-53.66c-4.08-23.37,1.83-44.9,12.19-65.6
		c7.88-15.75,17.95-30.03,29.16-43.54c0.74-0.89,1.25-2.23,3.19-1.94c-1.65,8.44-3.51,16.81-4.9,25.26
		c-8.57,52.33,2.13,101.03,27.81,146.93c13,23.22,28.63,44.74,43.12,66.99c9.33,14.34,18.31,28.89,22.42,45.78
		c0.78,3.19,1.19,6.47,1.65,9.72c0.16,1.18,0.38,2.64-0.95,3.33c-1.4,0.71-2.33-0.48-3.11-1.32
		C1427.56,880.76,1425.32,878.06,1422.94,875.48z M1362.6,1476.77c-0.04-0.07-0.06-0.22-0.06-0.22l0.11,0.22
		c1.24,1.5,2.46,3.02,3.69,4.55C1365.07,1479.83,1363.77,1478.35,1362.6,1476.77z M1569.1,1517.67c-0.85,2.96-3.38,4-5.9,4.94
		c-5.26,1.94-10.8,2.67-16.33,3.06c-33.11,2.26-65.88,1.27-97.5-10.34c-21.29-7.82-40.07-19.32-53.57-37.99
		c-3.41-4.73-8.4-9.27-6.54-16.31c1.73,1.2,3.45,2.39,5.18,3.59c2.68,2.42,6.14,4,8.87,6.35c1.89,0.87,3.03,2.68,4.79,3.72
		c2.66,1.63,5.31,3.29,7.97,4.94c7.5,5.02,15.23,9.61,23.54,13.11c0.05,0.02,0.1,0.05,0.15,0.06c2.67,1.21,5.39,2.3,8.19,3.27
		c1.01,0.38,2.03,0.75,3.06,1.1c4.05,1.61,8.24,2.7,12.51,3.53c2.07,0.48,4.13,0.94,6.2,1.4c1.77,0.2,3.54,0.45,5.31,0.69
		c0.02,0.01,0.05,0.01,0.07,0.01c14.3,2.23,28.72,2.17,43.19,1.05c1.93-0.2,3.87-0.41,5.8-0.61c4.39-0.15,8.99,0.1,13.21-1.39
		c1.53-0.16,3.06-0.32,4.58-0.48c3.8-0.61,7.6-1.25,11.41-1.81C1562.68,1498.17,1571.71,1508.51,1569.1,1517.67z"/>
	<path class="st1" d="M2647.47,584.22c-5.93-11.17-14.28-20.13-25.28-26.45c-34.62-19.92-72.04-16.74-102.95,8.65
		c-1.2,0.99-2.2,3.03-4.05,2.19c-1.99-0.9-1.58-3.24-1.51-4.96c0.57-14.4,7.53-24.95,19.93-31.94c9.24-5.21,19.42-6.87,29.84-6.14
		c5.08,0.36,7.93-1.22,10.01-5.75c6.15-13.35,16.21-20.78,31.47-20.66c6.59,0.05,7.52-2.17,3.74-7.76
		c-5.27-7.79-13.61-9.77-22.15-10.29c-13.13-0.78-26.29-0.66-39.21-3.85c-3.55-0.88-7.36-1.08-11.05-1.04
		c-38.6,0.33-68.9,17.56-92.41,47.08c-17.49,21.99-26.53,48.32-33.43,75.06c-11.49,44.48-30.97,84.33-62.14,118.44
		c-31.44,34.38-60.88,70.51-91.16,105.89c-2.98,3.49-3.08,5.23,0.59,8.15c7.89,6.3,14.86,13.63,21.49,21.28
		c0.46,0.33,0.89,0.33,1.29,0.05c0.01,0,0.01,0,0.01,0c0.09-0.06,0.17-0.14,0.25-0.21c1.29-3.29-0.85-5.52-2.52-7.79
		c-3.49-4.75-7.4-9.19-12.16-14.29c5.53,1.42,8.98,3.9,12.26,6.8c9.92,8.78,16.58,19.83,22.31,31.57c3.45,7.1,6.46,8.83,14.22,7.81
		c6.37-0.84,12.76-0.83,19.11-0.47c14.96,0.85,25.72,8.76,30.1,22.48c3.61,11.31,3.87,22.95,2.09,35.48
		c-8.29-17.54-21.08-29.38-37.39-38.16c-11.18-6.03-23.68-8.23-35-13.63c-0.78-0.37-1.36,0.12-1.21,1c0.02,0.11,0.06,0.22,0.09,0.33
		c-0.49,4.23,0.75,6.14,5.62,6.9c21.06,3.32,37.88,14.14,51.33,30.53c7.1,8.66,12.82,18.16,17.53,28.26
		c2.03,4.33,3.58,3.87,6.16,0.49c4.58-5.98,7.62-12.63,9.85-19.76c5.25-16.78,5.42-34.08,5.57-51.41c0.01-1.66-1.1-4.24,1.31-4.78
		c2.04-0.45,2.91,1.98,3.79,3.5c4.21,7.35,6.88,15.38,10.11,23.16c2.29,5.51,4.5,11.05,7.03,16.44c1.18,2.52,2.28,5.96,5.55,6.01
		c3.56,0.04,4.81-3.5,6.17-6.2c1.48-2.92,2.68-6,3.81-9.08c9.87-27.02,12.05-55.39,14.64-83.7c1.63-17.99,5.58-35.36,15.12-51.03
		c7.19-11.82,17.51-16.8,31.34-14.7c7.98,1.21,15.6,3.72,23.35,5.78c22.29,5.93,43.64,4.54,62-10.58
		c20.8-17.14,32.09-40.83,42.06-65.16c0.67-1.63,1.41-3.77-0.24-5.18c-1.63-1.4-3.66-0.22-5.26,0.42
		c-7.25,2.91-14.43,5.99-21.58,9.14c-3.77,1.67-6.46,1.48-9.59-2c-9.6-10.66-21.6-16.39-36.29-14.69
		c-5.08,0.59-10.08,2.02-15.09,3.12c-14.6,3.2-23.84-5.72-21.07-20.54c2.59-13.87,11.1-22.64,24.19-27.16
		c8.82-3.04,18.04-4.27,27.26-5.13c18.97-1.77,35.28-7.93,45.38-25.45c1.11-1.93,2.91-3.46,4.42-5.15
		c4.75-5.31,10.63-7.4,17.73-6.71c5.6,0.54,10.79,2.55,16.16,3.92c2.51,0.64,5.52,2.7,7.52,0.45
		C2650.9,590.15,2648.88,586.87,2647.47,584.22z M2385.9,758.25c-9.38,15.97-20.83,30.65-29.56,47.03
		c-8.78,16.5-14.93,33.83-16.83,52.56c-0.69,6.87-3.25,8.24-8.62,3.89c-13.63-11.06-21.43-25.76-24.97-42.82
		c-0.89-4.32,2.05-6.85,4.5-9.61c27.82-31.25,54.46-63.48,78.75-97.58c10.03-14.08,19.47-28.58,29.24-42.86
		c1.36-1.98,2.24-4.43,5.31-5.89C2417.88,697.96,2403.3,728.65,2385.9,758.25z"/>
	<path class="st1" d="M2171.37,1706.8c-2.03,2.2-4.5,1.48-6.92,1.01c-46.85-8.98-92.36-22.15-135.25-43.47
		c-1.47-0.73-3-1.35-4.55-1.9c-3.23-1.15-5.16-0.41-5.2,3.46c-0.19,18.36,0.47,36.64,3.15,54.85c0.91,6.16,3.62,8.13,9.81,7.85
		c24.9-1.11,49.82-2.64,74.75-0.63c9.76,0.79,19.5,1.66,30.19,3.82c-18.52,12.21-36.72,22.61-56.19,30.42
		c-5.87,2.35-13,1.57-19.55,2.21c-27.29,2.64-54.18,7.85-81.14,12.6c-14.03,2.47-13.78,2.58-11.32-11.57
		c10.43-59.94,6.86-118.17-21.83-173.19c-3.71-7.11-7.97-13.94-11.57-21.1c-10.53-20.94-5.97-37.17,13.78-49.78
		c11.19-7.14,23.57-11.64,35.97-16.06c18.39-6.55,37.07-12.32,55.12-19.85c10.46-4.37,20.58-9.38,30.11-15.57
		c8.61-5.6,11.09-5.03,16.76,3.93c9.58,15.13,18.2,30.83,27.96,45.86c21.99,33.89,50.93,59.67,87.74,76.41
		c17.59,8,35.66,12.85,55.05,6.87c0.53-0.16,1.19,0.12,2.75,0.32c-11.6,20.13-25.19,38.21-40,55.43c-2.23,2.07-4.66,1.18-6.96,0.31
		c-53.72-20.45-105.9-43.8-150.26-81.45c-19.4-16.47-35.63-35.5-44.05-60.06c-1.75-5.1-4.81-6.75-9.76-6.08
		c-21.5,2.94-41.91,8.95-59.74,21.82c-11.27,8.13-12.86,12.92-9.21,26.43c4.77,17.67,14.15,32.82,26.05,46.5
		c23.33,26.82,52.75,45.07,84.64,59.75c35.17,16.19,72.14,26.82,109.77,35.43C2165.09,1702.2,2170,1701.49,2171.37,1706.8z"/>
	<path class="st1" d="M2046.64,349.12c-4.18,1.34-6.85,0.61-9.87-2.18c-3.23-2.97-6.33-6.24-10.76-8.41
		c-0.67,3.98-1.46,7.37-1.74,10.81c-0.38,4.59-1.69,6.61-6.89,4.87c-4.12-1.37-8.43-2.83-13.4-2.71c2,5.65,3.5,11.04,5.79,16.05
		c1.84,4.02,0.25,4.9-3.23,5.49c-4.33,0.75-8.83,0.98-14.31,3.46c4.39,3.93,8.15,7.31,12.06,10.83
		c-13.14,5.43-20.51,4.63-28.33-2.77c-1.68-0.52-2.65-1.67-3.24-3.14c-0.12-0.31-0.22-0.62-0.32-0.95
		c-0.11-0.26-0.22-0.51-0.32-0.77c0,0,0.01-0.02,0-0.02c-3.49-8.19-4.26-16.85-4.5-25.63c-0.09-3.09,1.15-3.7,3.72-2.31
		c0.92,0.48,1.82,0.98,2.73,1.45c9.03,4.55,11.53,3.35,14.43-6.61c0.61-2.08,0.14-4.97,3.06-5.95c1.62,1.74,0.94,3.87,1.91,5.47
		c0.17,0.28,0.35,0.53,0.57,0.74c0.09,0.09,0.17,0.16,0.27,0.22c0.35,0.26,0.78,0.38,1.34,0.3c0.82-2.54,1.71-5.06,2.45-7.62
		c1.05-3.64,0.43-5.85-4.18-5.62c-4.01,0.2-8.05-0.3-13.14-0.53c5.32-6.66,9.95-12.58,14.76-18.36c1.77-2.12,1.78-3.25-0.89-4.45
		c-10.7-4.8-21.55-9.08-33.18-11.13c-2.96-0.52-3.97,0.17-4.06,3.28c-0.17,6.87-0.7,13.72-1.16,21.6
		c-5.67-4.76-10.49-8.81-15.77-13.25c-3.93,10.89-7.42,21.33-9.03,32.33c-0.63,1.91-1.04,3.79,0.68,5.39
		c1.94-0.74,2.45-2.5,3.64-3.55c4.23-3.72,8.97-1,13.46-0.67c3.95,0.3,0.35,3.85,1.83,5.37c-4.64,7.47-10.47,13.76-18.45,17.72
		c-6,2.98-11.98,2.77-17.53-1.16c-6.09-4.29-9.63-10.44-12.67-17.32c3.65-1.05,6.94-0.62,10.08-1.73
		c13.21-4.63,14.57-9.25,5.37-19.28c13.6-11.3,13.75-13.72,1.18-21.11c3.27-4.05,5.65-8.51,7.14-13.51
		c0.87-2.92,0.06-4.17-3.01-4.42c-3.91-0.33-7.7,0.71-11.95,1.25c0.94-2.87,1.98-5.11,2.41-7.46c3.2-17.32,4.49-17.18-12.77-15.06
		c-3.25,0.4-4.82-0.3-5.86-3.5c-1.87-5.72-5.42-10.58-8.57-15.65c-2.52-4.06-4.38-3.12-6.71-0.04c-3.01,3.97-5.53,8.3-7.09,12.94
		c-1.57,4.63-3.58,6.77-8.75,5.23c-2.68-0.79-5.73-0.38-8.6-0.51c-3.32-0.14-4.63,1.09-4.31,4.74c0.53,6.12,2.41,11.9,4.19,18.25
		c-3.6-0.42-6.61-0.96-9.64-1.08c-4.58-0.16-6.9,1.26-4.9,6.57c1.66,4.39,4.32,8.17,6.63,12.2c-11.84,4.94-12.47,9.43-2.8,17.37
		c0.47,0.4,0.94,0.84,1.48,1.1c3.03,1.44,2.44,2.54,0.28,4.7c-6.14,6.2-5.59,9.08,1.67,13.86c4.71,3.11,10.16,3.79,15.74,4.66
		c-1.44,4.22-3.6,7.45-5.94,10.55c-8.29,10.96-18.31,12.4-29.47,4.33c-5.25-3.8-9.32-8.67-13.04-13.91
		c-0.35-0.77-0.46-1.58-0.58-2.41c-0.07-0.41-0.15-0.82-0.27-1.21c0.9-0.43,1.82-0.85,2.73-1.21c4.03-1.61,8.09-2.3,12.29-0.23h0.02
		c0.48,0.22,0.96,0.49,1.45,0.8c0.35,0.35,0.69,0.68,1.05,1.03c0.66,0.63,1.32,1.26,1.99,1.88c1.42,0.17,1.71-0.56,1.56-1.81
		c-1.36-11.51-4.86-22.44-8.61-33.32c-1.18-3.39-2.52-1.37-3.9-0.35c-4.19,3.14-7.63,7.27-12.71,10.06
		c-1.35-6.97-1.03-13.53-1.19-20.07c-0.07-3.24-1.14-4.47-4.39-3.92c-12.64,2.13-24.4,6.64-36.1,12.82
		c3.9,4.66,7.44,8.91,10.99,13.15c0.84,0.24,1.31-0.1,1.62-0.66c0.07-0.14,0.14-0.28,0.2-0.45v-0.01c0.02-0.07,0.05-0.12,0.07-0.2
		c0.22-2.23-0.99-3.93-2.09-5.64c-1.3-2.04-1.56-3.85,0.92-5.08c2.31-1.16,5.16-3.24,7.04-0.07c3.49,5.88,5.79,12.3,7.21,19.16
		c-3.27,0.3-5.31-1.61-7.76-1.45c-0.05,0-0.11,0.01-0.16,0.01c-0.12,0.05-0.23,0.1-0.35,0.16h-0.01c-1.61,0.87-2.56,2.85-4.73,2.73
		c-16.02-0.12-16.21,0.15-10.29,15.22c0.3,0.77,0.71,1.48,1.06,2.23c0.69,0.11,1.18-0.11,1.56-0.51c0.19-0.19,0.35-0.43,0.5-0.69
		c0.02-0.04,0.04-0.07,0.06-0.11c1.36-3.13-1.13-6.3-0.36-9.54c2.83,0.46,2.97,2.54,3.54,4.19c4.23,12.41,4.26,12.5,16.59,6.99
		c3.19-1.42,3.87-0.4,4.1,2.61c0.19,2.54,0.19,5.04-0.02,7.5v0.07c-0.27,3.46-0.9,6.83-1.92,10.16c0,0.02,0,0.05-0.01,0.06
		c-0.54,1.83-1.2,3.64-1.95,5.43c-0.4,0.37-0.75,0.74-1.09,1.15c-3.92,12.36-17.54,15.43-31.07,8.2c2.97-4.34,7.96-6.89,10.76-11.65
		c-4.65-0.93-8.87-2.21-13.14-2.5c-4.89-0.33-4.63-2.52-3.28-6c1.5-3.82,2.6-7.81,4.01-11.65c1.36-3.69-0.07-4.35-3.38-3.5
		c-3.58,0.94-7.31,1.44-10.75,2.72c-3.46,1.29-4.18-0.07-4.58-3.11c-0.57-4.29-1.51-8.55-2.39-13.36c-1.52,1.16-2.46,1.67-3.12,2.42
		c-6.87,7.84-14.4,10.92-25.2,7.11c-7.86-2.77-16.11-0.32-23.7,6.2c15.55,1.82,22.8,11.15,26.38,24.29c0.59,2.18,1.55,4.26,2.1,6.45
		c3.7,14.54,11.41,24.01,27.39,27.06c15.22,2.89,20.97,14.19,17.88,29.84c-0.3,1.56-1.13,3.23,0.71,4.48
		c2.18,2.49,5.17,2.3,8.03,2.24c4.99-0.1,9.9,0.24,14.65,1.82c4.7,1.56,9.24,1.27,13.92-0.32c14.65-5,29.67-8.5,44.97-10.88
		c23.15-3.59,46.27-3.85,69.52-0.87c17.65,2.26,34.83,6.31,51.6,12.19c4.29,1.5,8.68,2.99,13.28,1.53
		c6.38-2.04,12.92-2.41,19.55-2.2c2.68,0.07,5.43,0.15,7.3-2.38c2.25-1.2,2.05-2.8,1.53-5.12c-3.82-17.04,2.15-27.55,19.2-30.83
		c13.62-2.62,20.72-10.59,24.48-22.94c0.9-2.94,2.02-5.83,2.8-8.81c3.42-13,9.9-23.06,24.72-25.33
		C2069.4,346.65,2059.39,345.04,2046.64,349.12z M1883.78,300.18c2.83,0.06,4.48,1.89,5.58,4.19c3.5,7.26,3.7,14.67,0.06,21.87
		c-2.87,5.69-8.05,5.69-11.35,0.28c-2.09-3.45-2.57-7.29-2.55-11.23c-0.01-3.71,0.32-7.37,2.14-10.71
		C1879,302.16,1880.67,300.11,1883.78,300.18z M1979.17,425.17c-62.07-21.97-124.33-22.41-186.88-1.94
		C1850.94,382.49,1925.47,385.21,1979.17,425.17z"/>
	<path class="st2" d="M2171.37,1706.8c-7.01-3.74-14.94-4.14-22.45-5.98c-40.31-9.9-79.72-22.31-116.51-41.91
		c-31.62-16.85-60.08-37.56-79.89-68.27c-7.08-10.98-12.09-22.83-15.18-35.62c-1.76-7.32,0.02-12.9,5.03-17.96
		c11.07-11.19,25.09-17.1,39.67-21.82c10.38-3.36,21.02-5.78,32-6.38c2.95-0.16,5.26,0.2,6.28,3.47
		c10.6,34.33,35.09,57.66,62.92,77.9c41.33,30.06,87.71,50.39,135.3,68.18c0.75,0.28,1.62,0.23,2.44,0.33
		c0.2,1.64-0.86,2.66-1.81,3.75c-13.18,15.09-27.63,28.88-42.94,41.78C2174.78,1705.48,2173.21,1706.38,2171.37,1706.8z"/>
	<path class="st1" d="M2033.14,963.39c-2.45-2.67-4.89-5.33-7.72-8.41c46.32,5.55,92.34-0.23,137.98,4.86
		c32.98,3.68,65.11,10.62,93.71,28.26c35.18,21.69,54.16,53.15,53.77,95.15c-0.22,24.08,3.38,47.14,16.24,68.05
		c5.22,8.49,11.82,15.75,19.86,21.91c-12.5,5.93-45.68-6.45-62.87-23.09c-0.15-1.25,0.66-1.65,1.67-1.87
		c3.1,0.01,5.36,1.95,7.75,3.5c6.06,3.94,12.28,7.56,19.32,10.08c-4.35-3.89-7.83-8.39-11.1-13.07c-3.57-5.12-5.95-10.81-8.12-16.61
		c-2.1-5.62-3.39-11.45-4.57-17.31c-1.17-5.86-1.68-11.82-2.38-17.75c-1.93-16.34-2.45-32.99-8.39-48.56
		c-13.19-34.63-38.16-55.47-74.74-61.65c-25.48-4.31-48.31,4.31-71.05,16.24c12-1.74,23.29-1.64,34.51-0.71
		c11.31,0.93,22.39,3.32,32.94,7.81c21.52,9.17,37.23,23.85,45.14,46.32c5.82,16.54,9.73,33.64,15.06,50.31
		c0.5,1.58,0.75,3.22,0.21,4.87c-0.44,0.93-1.03,1.65-2.22,1.42c-5.52-10.94-7.81-22.91-11.21-34.54
		c-1.85-6.31-3.72-12.64-6.13-18.74c-11.16-28.32-42.39-50.71-70.53-50.74c-2.41,0-4.9-0.36-7.42,0.89c0.14,0.58,0.1,1.31,0.43,1.59
		c29.28,24.37,45.53,56.67,56.93,92.17c8.93,27.8,16.8,55.85,24.3,85.36c-6.01-5.2-11.11-9.61-16.2-14.02
		c-0.52-1.28-0.74-2.7-1.8-3.72c-7.54-10.31-14.17-21.22-21.18-31.88c-27.27-41.48-55.56-82.27-82.8-123.77
		c-2.91-4.43-6.54-7.79-11.09-10.45c-24.71-14.47-50.35-27.22-75.53-40.79C2035.08,963.94,2034.02,963.88,2033.14,963.39z"/>
	<path class="st2" d="M2285.14,1420.16c2.28-2.76,4.66-0.47,6.76,0.12c29.09,8.19,58.56,13.32,88.94,12.11
		c21.45-0.85,42.03-5.13,61.3-14.89c2.66-1.35,4.76-3,6.46,1.56c6.23,16.71,19.08,26.87,34.74,34.12c4.85,2.25,9.64,4.67,14.29,7.3
		c11.59,6.57,18.66,16.53,21.46,29.54c0.87,4.02,1.33,8.18,2.69,12.03c2.46,6.95,2.4,13.68-0.34,20.46
		c-0.26,1.83-1.04,3.47-2.09,4.94c-1.8,2.52-3.23,1.72-4.37-0.65c-0.94-3.49,0.09-7.27-1.56-10.66
		c-3.49-4.94-6.73-10.08-11.11-14.33c-5.91-3.6-13.03-1.44-19.16-3.99c-3.95-0.35-7.64-1.95-11.55-2.47
		c-17.33-5.11-27.66-16.93-32.6-33.95c-2.05-7.07-3.02-7.36-9.77-3.6c-14.93,8.31-30.77,13.2-48.02,13.56
		c-21.17,0.44-39.28-7.87-56.28-19.22c-12.67-8.46-24.56-17.97-35.48-28.64c-1.32-1.29-2.6-2.65-4.29-3.49L2285.14,1420.16z"/>
	<path class="st3" d="M2206.19,943.51c-1.05,0.16-1.99-0.05-2.73-0.87c-1.44-1.55-3.07-0.77-4.67-0.39c-1.46,0.29-2.79,0-3.97-0.92
		c-1.48-1.43-3.1-0.71-4.71-0.3c-4.62-0.72-9.39-0.36-13.86-2.08c0.74-2.28,2.7-3.14,4.71-3.52c32.44-6.1,64.93-9.51,97.01,1.56
		c18.27,6.31,33.34,17.4,45.99,32.2c13.32,15.59,21.11,34.3,31.09,51.78c6.47,11.31,13.66,22.03,24.14,30.19
		c12.63,9.83,26.78,15.08,42.84,15.08c4.94,0,9.89-0.28,14.82,0.28c1.64,0.19,3.55,0.49,4.14,2.21c0.74,2.14-1.48,2.62-2.72,3.45
		c-16.9,11.36-35.11,16.98-55.46,11.83c-12.75-3.23-22.96-10.77-31.73-20.33c-1.8-1.97-3.69-3.87-5.39-5.93
		c-1.33-2.34-3.14-4.31-5.01-6.22c-0.94-2.05-2.2-3.85-4.12-5.12c-2.59-4.38-6.31-8.07-8.05-12.98c-0.99-2.02-1.36-4.46-3.74-5.54
		c-0.76-1.29-1.53-2.57-2.29-3.86c-5.65-14.13-13.91-26.62-23.95-37.95c-2.98-3.36-6.2-6.53-9.62-9.47
		c-2.85-1.17-4.34-4.22-7.29-5.26c-1.27-1.03-2.47-2.16-4.05-2.74c-1.75-1.95-4.26-2.62-6.43-3.87c-4.54-3.32-9.54-5.69-14.87-7.39
		c-6.9-2.42-13.8-4.85-20.69-7.27c-5.37-2.87-11.38-3.41-17.17-4.78C2214.38,944.39,2210.52,942.34,2206.19,943.51z"/>
	<path class="st2" d="M1994.49,905.41c-2.82-0.5-5.64-1-9.71-1.73c5.94-4.24,11.38-6.73,17.86-7.12c7.87-0.47,15.57,1.18,23.39,1.4
		c32.88,0.93,64.53-6.32,96.08-14.26c10.57-2.66,21.32-4.94,31.49-8.72c24.96-9.27,48.92-5.62,72.7,3.92
		c6.31,2.53,12.52,5.29,18.13,9.19c2.19,1.52,4.53,2.95,5.09,5.89c-18.06-6.99-35.89-4.48-53.73,1.08
		c-25.32,7.9-50.26,17.19-76.45,22c-41.2,7.57-81.79,6.39-121.3-9.04C1997.45,906.36,1995.38,906.7,1994.49,905.41z"/>
	<path class="st1" d="M2345.74,1056.42c12.24,13.95,26.2,24.96,45.39,27.51c12.31,1.64,23.69-1.39,34.67-6.46
		c4.83-2.23,9.42-4.97,13.95-8.58c-5.36,0-10.72,0.05-16.07-0.01c-23.66-0.28-42.97-9.49-58.06-27.83
		c-10.86-13.2-17.58-28.73-25.56-43.59c-18.77-34.95-45.66-58.96-86.66-63.82c-26.06-3.09-51.72-0.53-77.16,5.31
		c-1.95-0.37-4.15,0.24-6.08-1.81c1.56-2.08,3.97-2.62,6.16-3.29c22.7-6.95,45.86-12.22,69.54-13.22
		c33.27-1.4,60.56,12.76,83.88,35.6c16.64,16.3,29.3,35.48,40.67,55.65c10.35,18.38,24.45,32.99,43.54,42.44
		c11.01,5.45,22.74,8.28,36.22,9.31c-14.44,14.59-30.54,22.65-50.01,23.77c-24.69,1.42-41.55-11.55-55.47-30.01
		C2344.26,1056.23,2344.72,1056.03,2345.74,1056.42z"/>
	<path class="st3" d="M1894.57,932.61c-4.36,4.52-7.41,9.9-9.67,15.66c-2.24,5.72-3.97,11.63-5.91,17.4
		c-8.2-13.89,0.38-67.36,13.6-83.05c2.94,4.08,3.47,8.97,3.61,13.35c0.68,21.52,12.88,36.67,26.28,51.86
		c29.39,33.3,58.05,67.26,87.01,100.95c0.5,1.05-0.12,1.52-0.98,1.87c-1.73-0.13-3.16-1.08-4.71-1.7c-1.04-0.59-2.09-1.17-3.13-1.76
		c-1.68-2.76-4.68-3.38-7.35-4.54l0.05-0.04c-2.1-2.74-5.59-3.37-8.18-5.38c-3.9-1.83-7.39-4.41-11.27-6.28
		c-16.73-8.44-32.62-18.13-47.05-30.19c-14.12-11.81-20.26-27.38-22.58-45.03c-0.93-7.09-2.62-14.06-3.91-21.09
		C1899.66,930.73,1897.76,929.69,1894.57,932.61z"/>
	<path class="st3" d="M1266.07,1290.04c-2.17-14.63-2.67-29.18,3.8-42.96c6.85-14.59,17.2-25.08,34.18-26.83
		c12.16-1.25,21.98,3.98,30.62,11.86c6.78,6.18,12.02,13.68,15.7,21.97c7.17,16.19,13.38,32.75,15.13,50.6
		c0.08,0.82,0.42,1.66,0.29,2.44c-0.6,3.53,0.23,8.79-4.03,9.34c-3.19,0.42-2.61-4.7-3.48-7.38c-3-9.24-6.89-18.05-11.98-26.32
		c-4.63-2.41-4.78-8.62-9.36-11.08c-2.66-2.62-5.32-5.24-7.98-7.86c-0.95-1.83-2.71-2.66-4.4-3.59
		c-17.59-7.01-30.08-3.56-41.71,11.42c-4.04,5.21-7.53,10.76-11.04,16.32C1270.65,1289.84,1269.46,1293.5,1266.07,1290.04z"/>
	<path class="st3" d="M2036.52,859.37c-1.92-1.98-4.5-2-6.91-1.99c-17.18,0.03-34.21,1.12-49.84,9.3c-3.27,1.71-3.68,0.6-3.87-2.43
		c-1.24-19.34,8.32-29.96,27.75-30.78c14.6-0.62,29.21,0.12,43.84-0.8c30.39-1.93,53.68-15.44,70.5-40.59
		c1.32-1.97,2.08-4.44,5.03-6.08c-0.62,14.49-5.33,26.8-13.99,37.66c-10.84,13.6-25.02,22.41-41.06,28.58
		c-1.91,0.74-4.79,0.35-5.22,3.45c-1.18,0.17-2.36,0.33-3.54,0.5c-2.01-0.5-3.92,0.51-5.92,0.36c-0.8-0.06-1.24,0.37-0.44,0.2
		c0.01,0,0.1,0.36,0.15,0.55C2047.61,858.83,2042.09,859.35,2036.52,859.37z"/>
	<path class="st2" d="M1761.79,445.36c9.3-0.6,18.57-0.67,27.44,2.8c2.88,1.13,5.25-0.4,7.71-1.24
		c28.34-9.62,57.44-14.46,87.37-14.11c28.88,0.34,56.92,5.37,84.03,15.39c3.45,1.28,6.58,1.69,10.08,0.22
		c8.48-3.56,17.42-1.81,26.19-1.91c-2.37,5.45-7.62,8.45-11.05,13.04c-2.53,3.38-3.06,9.39-7.47,9.84
		c-3.59,0.36-7.51-2.83-11.33-4.34c-34.29-13.48-69.76-20.83-106.7-19.75c-29.82,0.87-58.3,7.54-84.64,21.97
		c-4.18,2.29-6.03,2-8.1-2.56c-2.75-6.06-7.79-10.55-12.87-14.81C1760.89,448.58,1758.82,447.34,1761.79,445.36z"/>
	<path class="st1" d="M2082.68,672.62c-10.56,23.09-33.22,34.09-58.79,29.32c-10.78-2.01-21.23-5.14-30.92-10.21
		c-17.21-9-34.93-11.74-53.66-5.74c-4.86,1.56-5.4-0.63-4.01-4.56c3.48-9.81,8.27-18.86,15.9-26.11
		c11.93-11.33,27.01-13.26,41.41-5.01c5.33,3.05,10.2,6.92,15.22,10.51c8.9,6.38,18.26,11.91,28.69,15.41
		c11.72,3.92,23.38,4.01,35.03-0.49C2074.92,674.44,2078.23,672.65,2082.68,672.62z"/>
	<path class="st3" d="M1847.64,1059.92c-5.81-9.66-13.33-18.29-17.31-29.06c-3.68-9.97-5.69-20.02-2.3-31.75
		c7.91,8.89,15.18,16.91,22.3,25.07c24.24,27.77,48.46,55.57,72.55,83.47c0.75,0.87,4.65,1.71,1.27,4.17
		c-3.14-0.42-6.22-1.06-9.14-2.33c-11.25-3.89-20.68-11.05-30.66-17.2c-6.28-6.51-14.31-10.87-20.95-16.93
		C1857.98,1070.4,1851.85,1066.14,1847.64,1059.92z"/>
	<path class="st3" d="M2280.51,852.14c-3.75-7.7-9.64-13.74-15.28-19.99c-1.28-1.41-4.27-2.55-2.79-4.75
		c1.27-1.88,3.89-0.17,5.69,0.43c9.65,3.2,16.14,10.42,22.01,18.18c4.98,6.58,9.38,13.65,12.32,21.33
		c2.47,6.44,6.52,7.35,12.57,6.52c8.35-1.14,16.78-1.28,25.18,0.29c11.89,2.21,20.31,8.72,24.8,19.9
		c5.92,14.76,5.01,29.92,2.31,47.1c-1.08-2.01-1.4-2.5-1.61-3.03c-11.33-28.18-34.18-42.11-61.87-50.09
		c-3.96-1.14-8.29-1.42-11.19-4.95c-1.25-4.79-2.5-9.57-3.75-14.36c-1.06-3.33-1.97-6.74-4.8-9.14c-0.83-1.25-1.65-2.5-2.48-3.76
		C2282.44,854.24,2280.61,853.45,2280.51,852.14z"/>
	<path class="st3" d="M1838.73,1786.13c-5.49-11.39-9.78-23.04-8.77-36.05c0.26-3.36,0.83-6.4,2.64-9.33
		c8.58-13.84,16.04-28.19,19.7-44.46c0.43,8.81,0.65,17.64,1.32,26.44c1.83,24.11,5.59,47.76,17.34,69.41
		C1859.95,1791.59,1849.1,1790.16,1838.73,1786.13z"/>
	<path class="st4" d="M2285.16,1419.99c10.16,4.82,17.78,13.08,26.54,19.77c11.97,9.14,24.21,17.78,38.3,23.38
		c29.26,11.62,56.87,7.13,83.07-9c4.56-2.81,6.14-3.65,7.39,2.95c3.43,18.08,13.86,30.83,31.51,37.16c0.15,2.44-1.27,1.75-2.57,1.29
		c-17.75-4.05-28.37-15.94-34.37-32.29c-1.91-5.2-3.16-5.81-8.17-3.07c-42.36,23.16-88.18,15.53-124.12-20.51
		C2296.54,1433.45,2291,1426.57,2285.16,1419.99z"/>
	<path class="st4" d="M2033.14,963.39c0.85-0.2,0.01-3.79,2.28-1.13c27.01,23.32,43.95,54.22,62.67,83.73
		c10.5,16.56,20.88,33.2,34.37,47.52c12.03,12.78,25.74,23.73,39.88,34.09c6.65,4.87,13.16,9.93,19.93,14.65
		c2.02,1.41,4.08,2.89,4.42,5.66c-0.27,0.95-0.67,1.7-1.87,1.19c-16.14-11.02-32.26-22.08-48.43-33.06
		c-13.38-9.09-23.22-21.45-32.32-34.53c-21.05-30.25-39.78-62.05-61.39-91.92C2046.29,980.78,2039.66,972.13,2033.14,963.39z"/>
	<path class="st5" d="M1894.57,932.61c1.05-1.79,2.21-3.93,4.55-3.44c2.23,0.46,1.76,3.06,2.13,4.71c1.92,8.41,4.03,16.82,5.3,25.34
		c2.96,19.78,13.53,34.33,29.33,45.99c12.45,9.2,25.47,17.39,38.77,25.23c0.19,1.12,0.07,1.9-1.35,1.22
		c-13.04-6.08-25.72-12.82-37.91-20.51c-19.7-12.42-30.11-30.27-32.37-53.32c-0.78-7.96-2.45-15.85-3.88-23.74
		c-0.72-3.97-2.18-1.97-3.46-0.22C1895.3,933.45,1894.93,933.03,1894.57,932.61z"/>
	<path class="st5" d="M1266.07,1290.04c2.87,1.64,2.99-1.14,3.71-2.49c3.69-6.92,8.03-13.41,13.02-19.45
		c12.48-15.1,27.89-17.86,42.91-7.76c-0.59,0.59-1.24,0.68-1.97,0.27c-11.71-4.01-21.88-0.83-30.99,6.81
		c-10.93,9.16-17.77,20.87-21.2,35.44c-4.57-3.53-6.24-7.82-6.66-12.8C1265.29,1290.05,1265.68,1290.04,1266.07,1290.04z"/>
	<path class="st3" d="M1971.29,381.77c-5.03-9.14-5.43-19.26-6-29.3c-0.23-4.09,0.85-7.34,5.79-3.45c0.48,0.38,1.06,0.63,1.59,0.93
		c11.1,6.25,11.66,5.98,14.29-6.88c0.36-1.74-0.3-4.03,1.64-5.02c1.84-0.94,4.14-1.09,5.97-0.17c1.99,1,0.55,2.88,0.35,4.4
		c-0.17,1.22-0.35,2.44-0.53,3.66c-0.68,6.53-4.48,11.71-7.38,17.29c-1.15,2.21-2.69,2.18-4.56,1.27c-1.1-0.53-2.23-1.03-3.26-1.7
		c-2.33-1.52-4.68-4.37-7.55-2.5c-2.49,1.61-0.83,4.95-1.14,7.51c-0.1,0.81-0.25-0.22-0.1,0.59c0.06,0.33,0.52,0.26,0.87-0.13
		c0.94,1.64,1.03,3.41,0.83,5.23c-0.83,1.78-0.02,3.33,0.5,5.01C1972.94,379.65,1974.18,381.71,1971.29,381.77z"/>
	<path class="st6" d="M1371.21,1494.14c0.38-0.38,0.76-0.77,1.14-1.15c2.5-0.97,3.81,0.91,5.2,2.31c26,26.2,57.66,41.7,93.39,49.59
		c3.04,0.67,6.75,0.46,8.08,4.43c-0.86,1.61-2.19,0.92-3.43,0.69c-32.17-5.11-61.02-17.77-86.41-38.19
		C1382.62,1506.54,1376.28,1500.97,1371.21,1494.14z"/>
	<path class="st7" d="M1931.36,343.59c0.18,1.18,0.36,2.35,0.54,3.53c0.7-5.21,3.84-6.42,8.53-5.79c4.95,0.66,9.94,0.96,14.99,1.43
		c-0.15,3.58-3.26,4.89-4.43,7.38c-5.13-0.11-10.29-0.55-15.39-0.23C1929.99,350.27,1928.96,348.25,1931.36,343.59z"/>
	<path class="st8" d="M2288.99,975.85c15.54,12.02,25.93,27.86,33.82,45.55c0.43,0.95,0.9,1.89-0.32,2.63
		c-10.11-16.78-19.47-34.12-34.67-47.16C2287.64,975.87,2287.72,975.18,2288.99,975.85z"/>
	<path class="st9" d="M1794,378.39l-0.41,0l-0.41-0.02c1.3-5.97,1.66-11.98,0.99-18.9c-3.7,2.18-6.93,3.83-9.87,5.89
		c-2.54,1.78-4.12,1.73-5.66-1.18c-2.28-4.32-5.03-8.39-6.45-13.12c0.38-0.45,0.75-0.9,1.13-1.35c3.89,0.23,4.71,3.62,5.94,6.23
		c1.8,3.84,3.96,4.86,7.56,2.31c1.66-1.17,3.5-2.13,5.53-2.57c3.19-0.7,5.87,0.73,5.81,3.73
		C1798.04,365.92,1798.89,372.85,1794,378.39z"/>
	<path class="st10" d="M1847.64,1059.92c11.73,10.14,23.25,20.53,35.86,29.61c0.84,0.6,2.4,1.29,0.85,2.76
		c-14.11-9.15-27.44-19.24-38.24-32.32C1846.63,1059.96,1847.13,1059.94,1847.64,1059.92z"/>
	<path class="st10" d="M1950.06,586.17c1.23-0.77,2.45-1.53,3.68-2.3c1.76-1.16,3.23-0.15,4.45,0.85
		c9.06,7.49,18.94,13.61,29.7,18.35c1.65,0.73,3.39,1.67,3.2,4c-0.47,0.41-0.94,0.81-1.4,1.22c-12.48-4.46-23.78-10.96-33.9-19.51
		C1954.1,587.38,1952.8,585.21,1950.06,586.17z"/>
	<path class="st11" d="M1971.26,368.28c-0.14,0.39-0.25,0.78-0.41,1.16c-0.17,0.39-0.38,1.39-0.81,0.33
		c-0.37-0.89-0.25-2.04-0.18-3.06c0.21-2.99-1.32-6.92,1.64-8.63c2.66-1.53,5.41,1.37,7.52,3.03c4.91,3.88,7.66,2.89,9.72-2.88
		c1.51-4.23,3.75-8.21,5.66-12.3c0.39,0.47,0.79,0.94,1.18,1.41c-1.6,6.02-4.85,11.26-7.67,16.72c-1.78,3.45-3.73,3.92-6.62,1.49
		c-0.62-0.52-1.4-0.86-2.1-1.29C1971.55,359.63,1971.55,359.63,1971.26,368.28z"/>
	<path class="st12" d="M2194.82,1149.12c0.45-0.38,0.89-0.77,1.34-1.15c3.08-1.41,4.95,0.96,6.95,2.42
		c8.84,6.46,17.28,13.43,25.29,20.91c1.65,1.3,0.5,2.55-0.06,3.81C2217.16,1166.44,2205.99,1157.78,2194.82,1149.12z"/>
	<path class="st13" d="M1475.59,1550.01c1.05-0.41,2.1-0.82,3.15-1.23c1.24-1.72,3.08-1.96,4.92-1.7
		c11.65,1.6,23.36,2.66,35.09,3.46c1.73,0.82,3.43,1.67,3.24,4.03c-1.22,0-2.44-0.01-3.67-0.01c-4.61-1.12-9.37,0.37-13.97-0.84
		C1494.63,1553.57,1485,1552.59,1475.59,1550.01z"/>
	<path class="st14" d="M2513.94,1515.33c1.88,3.45,3.05,7.05,2.46,11.05c-1.45,1.76,1.38,3.29,0.26,5.03
		c-0.86,1.48-2.03,2.84-3.83,2.22c-2.02-0.69-1.16-2.75-1.29-4.25c-0.36-4.28,2-8.31,1.18-12.64
		C2512.12,1515.41,2512.9,1515.26,2513.94,1515.33z"/>
	<path class="st15" d="M2258.16,1113.13c0.44-0.47,0.89-0.94,1.33-1.41c0.2,0,0.51-0.1,0.59,0c6.26,7.28,11.51,15.1,13.26,24.8
		c-0.49,0.56-1.02,0.6-1.59,0.11C2265.97,1129.52,2261.3,1121.77,2258.16,1113.13z"/>
	<path class="st16" d="M1562.6,888.17c1.66-0.61,3.64,0.11,5.13-1.23c4.39-4.26,9.4-2.85,14.4-1.56c1.09,0.63,1.8,1.53,2.01,2.8
		C1576.96,889.55,1569.78,889.71,1562.6,888.17z"/>
	<path class="st17" d="M1521.99,1554.57c-0.82-0.71-1.65-1.41-2.47-2.12c4.68-4.51,10.3-2.3,15.64-2.21
		c2.18,0.76,4.44,1.42,5.79,3.54C1534.68,1555.3,1528.33,1554.79,1521.99,1554.57z"/>
	<path class="st18" d="M2271.75,1136.63c0.54-0.04,1.08-0.07,1.61-0.11c6.29,1.91,10.58,5.78,12.07,12.37
		c-0.44,0.41-0.88,0.82-1.31,1.23C2279.12,1146.43,2275.23,1141.72,2271.75,1136.63z"/>
	<path class="st19" d="M2513.94,1515.33c-0.41,0.47-0.81,0.94-1.22,1.42c-3.7-4.82-7.64-9.48-10.42-14.95
		C2507.94,1504.8,2510.73,1510.25,2513.94,1515.33z"/>
	<path class="st20" d="M1540.94,1553.78c-1.73-0.44-3.45-0.87-5.18-1.31c5.09-3.71,13.61-4.27,18.46-1.21
		c0.54,0.41,1.08,0.82,1.62,1.23C1550.97,1554.03,1545.93,1553.61,1540.94,1553.78z"/>
	<path class="st21" d="M1815.12,349.89c-0.81-0.8-1.61-1.6-2.42-2.39c2.53-3.35,6.26-2.38,9.61-2.56c3.46-0.19,6.94-0.12,10.41-0.08
		c1.07,1.02,1.07,2.35,1.07,3.68C1827.61,349.4,1821.21,347.55,1815.12,349.89z"/>
	<path class="st22" d="M1336.95,1271.67c5.27,1.88,6.56,7.11,9.36,11.08c-0.48,0.51-0.96,1.03-1.44,1.54
		C1342.23,1280.08,1339.59,1275.88,1336.95,1271.67z"/>
	<path class="st23" d="M2256.27,957.35c6.06,0.53,11.1,3.19,15.4,7.4c0.51,0.18,0.68,0.36,0.52,0.56c-0.16,0.2-0.32,0.3-0.49,0.3
		C2266.56,962.86,2261.42,960.11,2256.27,957.35z"/>
	<path class="st24" d="M2218.48,945.04c5.98,0.73,12.17,0.74,17.1,5.04c-5.69-1.41-11.39-2.82-17.08-4.24
		C2218.49,945.58,2218.48,945.31,2218.48,945.04z"/>
	<path class="st25" d="M1859.6,1246.55c0.03,0.53,0.06,1.06,0.09,1.59c-4.08,2.22-4.77,7.36-8.52,9.87
		c-0.4-0.44-0.81-0.87-1.21-1.31C1850.44,1250.31,1854,1246.55,1859.6,1246.55z"/>
	<path class="st19" d="M1973.29,1031.66c0.45-0.41,0.9-0.81,1.36-1.22c3.73,2.05,7.46,4.1,11.19,6.15c0.21,1.07,0.12,1.82-1.26,1.16
		C1980.64,1036.03,1976.74,1034.27,1973.29,1031.66z"/>
	<path class="st26" d="M1971.29,381.77c2.52-2.53-2.09-5.76,0.81-8.26c0.4,3.99,2.04,7.56,3.85,11.06
		C1973.03,385.9,1972.1,383.94,1971.29,381.77z"/>
	<path class="st27" d="M1779.45,325.1c0.39-0.41,0.78-0.82,1.17-1.23c4.36,0.64,6.7,2.88,5.96,7.55c-1.28,1.76-2.74,3.1-5.15,2.19
		c1.04-0.85,4.23-0.45,1.81-3.3C1781.85,328.67,1780.7,326.84,1779.45,325.1z"/>
	<path class="st23" d="M2469.41,1495.53c0.86-0.43,1.71-0.86,2.57-1.29c3.72,1.19,7.45,2.38,11.17,3.57
		C2478.37,1498.24,2473.79,1497.45,2469.41,1495.53z"/>
	<path class="st28" d="M2516.67,1531.42c-0.7-1.65-1.96-3.26-0.26-5.03c0.38,1.45,1.02,2.24,2.19,0.62c1.03-1.44,1.9-2.99,2.85-4.49
		c0.42,0.44,0.83,0.88,1.25,1.32C2521.18,1526.76,2519.37,1529.44,2516.67,1531.42z"/>
	<path class="st3" d="M1545.36,661.5c0.96,5.05,0.34,10.09-0.04,15.13C1543.92,671.58,1543.85,666.54,1545.36,661.5z"/>
	<path class="st29" d="M2218.48,945.04c0.01,0.27,0.01,0.53,0.02,0.8c-4.1-0.78-8.2-1.56-12.31-2.34
		C2210.64,941.16,2214.5,943.57,2218.48,945.04z"/>
	<path class="st30" d="M1584.14,888.17c-0.46-0.41-0.92-0.82-1.38-1.22c3.38-3.29,7.01-4.25,11.05-1.16
		c0.02,0.39,0.04,0.79,0.06,1.18c0.44,0.27,0.56,0.49,0.37,0.66c-0.16,0.14-0.33,0.21-0.52,0.21
		C1590.53,887.95,1587.33,888.06,1584.14,888.17z"/>
	<path class="st17" d="M1504.35,1553.72c4.68-0.03,9.41-1.12,13.97,0.84C1513.64,1554.74,1508.95,1555.02,1504.35,1553.72z"/>
	<path class="st31" d="M1984.57,1037.76c0.42-0.39,0.84-0.78,1.27-1.16c2.54,1.97,6.38,2.32,7.52,6.03
		C1990.43,1041,1987.5,1039.38,1984.57,1037.76z"/>
	<path class="st32" d="M2008.23,1050.02c0.41-0.42,0.83-0.83,1.24-1.25c2.5,1.93,5.1,3.79,4.89,7.48c-0.84-0.58-1.67-1.17-2.51-1.75
		c-1.19-1.17-2.1-2.71-4.02-2.86l-0.06,0.07C2007.36,1051.01,2007.51,1050.44,2008.23,1050.02z"/>
	<path class="st33" d="M2284.11,859.58c4.08,1.75,4.67,5.32,4.8,9.14C2287.32,865.68,2285.72,862.63,2284.11,859.58z"/>
	<path class="st34" d="M2288.99,975.85c-0.39,0.34-0.78,0.68-1.16,1.02c-2.08-1.61-4.16-3.22-6.24-4.84
		c-0.34-0.34-0.45-0.67-0.32-0.99c0.12-0.32,0.24-0.48,0.36-0.48C2284.6,971.59,2286.73,973.8,2288.99,975.85z"/>
	<path class="st35" d="M1993.31,1042.66c3.31,0.11,6.42,0.56,7.35,4.54C1998.21,1045.68,1995.76,1044.17,1993.31,1042.66z"/>
	<path class="st36" d="M1915.02,1109.5c3.22,0.07,6.28,0.8,9.14,2.33c-0.83,0.39-1.66,0.78-2.48,1.17
		C1919.23,1112.27,1916.87,1111.37,1915.02,1109.5z"/>
	<path class="st37" d="M2052.99,857.28c-0.41-0.33-0.82-0.66-1.23-0.99c2.48-0.34,4.92-2.27,7.44-0.12
		C2057.28,857.42,2055.1,857.18,2052.99,857.28z"/>
	<path class="st22" d="M2345.74,1056.42c-0.34,0.32-0.68,0.65-1.03,0.97c-1.27-1.59-2.54-3.18-3.81-4.76
		c-0.6-0.6-0.56-1.15,0.14-1.64C2342.98,1052.48,2344.7,1054.15,2345.74,1056.42z"/>
	<path class="st38" d="M2341.05,1050.99c-0.05,0.55-0.09,1.09-0.14,1.64c-1.44-2.08-2.89-4.15-4.33-6.23
		C2339.11,1046.91,2340.42,1048.62,2341.05,1050.99z"/>
	<path class="st39" d="M2324.78,1027.89c3.89,0.06,3.18,3.23,3.74,5.54C2326.63,1032.02,2325.9,1029.82,2324.78,1027.89z"/>
	<path class="st40" d="M2271.7,965.62c0.02-0.29,0.01-0.58-0.03-0.87c2.72,0.18,4.79,1.52,6.45,3.59c-0.48,0.67-1.02,0.71-1.6,0.12
		C2274.92,967.51,2273.31,966.56,2271.7,965.62z"/>
	<path class="st41" d="M2276.53,968.46c0.53-0.04,1.06-0.08,1.6-0.12c1.57,0.11,2.68,0.94,3.49,2.22c-0.01,0.49-0.02,0.98-0.04,1.47
		C2279.9,970.84,2278.21,969.65,2276.53,968.46z"/>
	<path class="st42" d="M1994.49,905.41c1.57,0.35,3.85-0.26,3.56,2.62c-1.23-0.18-2.61,0.08-3.49-1.17
		C1994.54,906.38,1994.52,905.9,1994.49,905.41z"/>
	<path class="st3" d="M1593.72,887.84c0.09-0.28,0.14-0.57,0.15-0.87c2.49,0,4.99,0,7.48-0.01
		C1598.92,888.24,1596.34,888.21,1593.72,887.84z"/>
	<path class="st31" d="M1323.75,1260.6c0.65-0.09,1.31-0.18,1.96-0.27c2.04,0.27,3.19,1.36,3.25,3.47
		C1327.23,1262.74,1325.49,1261.67,1323.75,1260.6z"/>
	<path class="st43" d="M2190.12,941.03c1.48-1.52,3.47-1.43,5.1-0.91c1.81,0.58-0.15,0.81-0.4,1.21
		C2193.26,941.23,2191.69,941.13,2190.12,941.03z"/>
	<path class="st44" d="M2008.23,1050.02c-0.15,0.57-0.3,1.13-0.45,1.7c-1.57-0.58-3.09-1.24-3.99-2.78
		C2005.46,1048.54,2006.84,1049.33,2008.23,1050.02z"/>
	<path class="st45" d="M2198.79,942.25c1.64-0.89,3.35-2.6,4.67,0.39C2201.91,942.51,2200.35,942.38,2198.79,942.25z"/>
	<path class="st46" d="M1262.06,1390.17c0.49,0.79,0.12,2.07,1.37,2.43c-0.29,1.02-1.08,2.28-1.92,1.45
		C1260.39,1392.97,1261.18,1391.39,1262.06,1390.17z"/>
	<path class="st47" d="M2007.84,1051.65c2.32-0.43,3.6,0.6,4.02,2.86C2010.24,1053.94,2008.86,1053.05,2007.84,1051.65z"/>
	<path class="st48" d="M2280.51,852.14c1.17,0.98,3.22,1.7,1.12,3.68c-0.8-1.24-1.6-2.48-2.41-3.72
		C2279.66,852.12,2280.08,852.13,2280.51,852.14z"/>
	<path class="st49" d="M1577.1,2196.05c14.85,0,29.7,0,44.59,0c0.26,3.31-2.37,2.36-3.85,2.58c-5.21,0.75-7.71,4-7.74,8.85
		c-0.13,24.12-0.1,48.23,0.01,72.35c0.02,3.69,1.54,6.96,5.51,8.07c4.53,1.26,8.57,0.13,11.87-3.26c2.35-2.42,3.41-5.59,4.67-8.62
		c10.52-25.23,21-50.48,31.6-75.67c0.89-2.1,0.75-5.57,3.75-5.76c3.24-0.2,3.12,3.41,4.02,5.44c11.24,25.37,22.33,50.81,33.42,76.24
		c1.41,3.23,2.82,6.45,5.49,8.84c3.28,2.95,7.05,4.23,11.39,2.56c4.13-1.59,5.15-5.22,5.21-9.04c0.16-11.33,0.09-22.67,0.1-34.01
		c0.01-11.34,0.05-22.67-0.02-34.01c-0.06-8.81-0.94-9.86-9.58-12.11c-0.98-0.25-2.15-0.12-2.25-1.5c-0.08-1.06,0.73-1.33,1.59-1.33
		c14.29-0.01,28.58-0.01,42.6-0.01c0.59,1.84,0.07,2.41-0.81,2.64c-9.85,2.58-10.3,3.13-10.31,13.42
		c-0.01,21.85,0.18,43.7-0.14,65.55c-0.07,5.12,1.7,5.65,6.23,6.03c16.87,1.41,29.54-5.44,39.5-18.46c1.08-1.41,2.04-3.72,4.27-2.39
		c2.52,1.49,0.17,3.36-0.47,4.72c-3.63,7.78-4.78,18.58-11.35,22.59c-6.05,3.68-16,1.04-24.23,1.05
		c-26.8,0.04-53.59,0.01-80.39,0.01c-2.13,0-4.27,0-6.35,0c-0.03-2.97,1.59-2.35,2.61-2.42c1.51-0.11,3.11-0.42,3.89-1.6
		c3.48-5.31-0.56-9.8-1.96-14.52c-0.78-2.63-1.41-5.37-5.58-5.19c-8.43,0.38-16.9,0.2-25.35,0.06c-2.65-0.04-4.24,0.66-4.93,3.4
		c-0.55,2.18-1.61,4.22-2.39,6.34c-3.21,8.71-2.46,10.17,6.33,12.27c-3.18,2.15-65.38,2.53-70.99,0.42
		c0.52-1.67,1.97-1.12,3.08-1.21c5.8-0.46,8.46-3.92,8.55-9.38c0.16-9.69,0-19.38,0.13-29.06c0.03-2.58-0.62-3.66-3.43-3.61
		c-8.86,0.15-17.73,0.19-26.59-0.01c-3.19-0.07-3.75,1.22-3.69,4c0.14,7.62,0.05,15.25,0.05,22.88c0,12.95,0,12.95,11.46,16.88
		c-14.79,0-29.57,0-44.39,0c0.1-0.47,0.12-1.12,0.28-1.16c10.42-2.33,11.27-3.36,11.29-14.48c0.03-20.61,0.02-41.23,0-61.84
		c-0.01-10.68-0.04-10.7-10.03-14.09c-0.81-0.28-1.62-0.4-1.64-1.41c-0.04-1.5,1.13-1.45,2.12-1.46c13.4-0.02,26.8-0.01,40.19,0
		c1.01,0,2.23-0.03,2.18,1.41c-0.05,1.34-1.28,1.23-2.26,1.5c-8.43,2.34-9.1,3.18-9.17,11.83c-0.06,7.83,0.13,15.67-0.08,23.5
		c-0.09,3.48,0.43,5.23,4.6,5.05c8.23-0.35,16.49-0.28,24.73-0.02c3.61,0.11,4.53-1.11,4.43-4.55c-0.23-8.03-0.03-16.08-0.09-24.12
		c-0.06-8.66-1.21-9.95-9.91-11.79c-0.72-0.15-1.36-0.68-2.03-1.03C1576.93,2196.94,1577.01,2196.49,1577.1,2196.05z"/>
	<path class="st49" d="M1750.32,2155.57c-14.57,0-29.15,0-43.83,0c0.2-0.8,0.23-1.46,0.4-1.5c9.84-2.24,10.65-3.25,10.66-13.72
		c0.01-26.99,0.01-53.98,0-80.97c0-12.44,0-12.44-10.96-15.96c0.44-2.23,2.25-1.32,3.42-1.33c17.1-0.05,34.2-0.04,51.3,0.04
		c6.87,0.03,13.52,1.34,19.69,4.45c15.87,8.01,17.34,26.56,2.96,37.16c-5.99,4.42-12.94,6.99-20.5,9.95
		c11.61,3.81,17.59,12.72,22.7,22.22c6.33,11.76,12.06,23.84,18.29,35.65c2.1,3.98,4.65,7.79,7.44,11.33
		c8.41,10.66,16.33,12.48,29.28,7.12c0.69-0.28,1.47-0.32,2.58-0.55c0.03,3.32-2.47,3.94-4.18,4.97
		c-14.15,8.5-32.12,6.46-45.23-5.09c-9.81-8.64-15.93-19.82-21.24-31.48c-4.59-10.09-8.7-20.42-13.5-30.41
		c-1.82-3.79-3.33-9.18-9.33-8.16c-6.48,1.1-11.39,7.07-11.48,13.48c-0.13,9.27-0.05,18.54-0.03,27.81
		C1738.79,2151.61,1739.74,2152.78,1750.32,2155.57z"/>
	<path class="st49" d="M2065.22,2065.01c6.47-1.8,40.04-1.64,44.45-0.03c-10.99,4.41-10.99,4.41-10.99,17.39
		c0,20.19,0.12,40.38-0.09,60.57c-0.05,4.32,0.75,5.66,5.57,6.08c16.68,1.46,29.11-5.22,38.93-18.09c0.86-1.12,1.51-3.71,3.51-2.39
		c1.81,1.19-0.03,2.94-0.63,4.3c-2.88,6.59-6.01,13.07-8.71,19.73c-1.18,2.9-2.68,4.06-5.89,4.05c-34.2-0.11-68.39-0.06-102.59-0.09
		c-1.09,0-2.47,0.48-3.41-1.52c2.67-1.5,7.56-0.39,7.7-5.13c0.17-5.78-2.74-10.66-5.27-15.55c-0.71-1.37-2.66-0.64-4.03-0.65
		c-7.83-0.05-15.67,0.2-23.48-0.13c-3.61-0.15-5.28,1.18-6.06,4.44c-0.33,1.38-1.06,2.67-1.58,4.01
		c-3.57,9.17-3.19,10.08,7.26,13.91c-11.83,0-21.93,0-32.03,0c11.58,0.26,14.01-8.69,17.36-16.83
		c9.77-23.75,19.61-47.47,29.58-71.13c0.87-2.07,0.7-5.56,3.76-5.74c3.27-0.18,3.11,3.41,4,5.43c11.03,25,21.88,50.07,32.84,75.1
		c1.15,2.62,2.35,5.31,4.04,7.59c2.64,3.57,6.32,5.22,10.85,4.08c4.79-1.2,6.52-4.75,6.56-9.26c0.1-12.15,0.09-24.31,0.11-36.46
		c0.01-9.48,0.01-18.95,0-28.43C2076.93,2068.85,2076.58,2068.37,2065.22,2065.01z"/>
	<path class="st49" d="M2296.45,2290.14c-14.79,0-29.58,0-44.4,0c0.02-1.92,1.2-1.77,2.15-1.77c6.01,0.01,8.56-3.65,8.85-8.97
		c0.44-8.22,0.54-16.46,0.59-24.69c0.08-15.45-0.26-30.91,0.16-46.35c0.17-6.47-2.29-9.08-8.42-9.15c-1.21-0.01-3.33,0.78-3.34-1.49
		c0-2.23,2.06-1.57,3.32-1.55c18.94,0.27,37.92-0.92,56.83,0.67c12.78,1.08,18.8,7.6,18.88,19.14c0.04,5.75-2.63,9.78-7.11,12.9
		c-4.25,2.96-9.08,4.76-14.83,7.21c13.54,3.45,16.28,13.94,18.37,24.92c0.65,3.43,1.42,6.86,2.41,10.2
		c3.08,10.31,7.99,13.95,18.86,14.2c1.52,0.03,3.37-0.95,3.79,1.68c0.38,2.43-1.53,2.74-2.98,3.17c-15.6,4.61-33.72,3.35-39.8-18.31
		c-1.99-7.11-3.06-14.48-4.95-21.62c-1.06-4.02-1.65-9.11-7.2-9.53c-4.28-0.33-11.1,6.77-11.24,11.65
		c-0.25,9.26-0.04,18.53-0.05,27.8C2286.34,2287.02,2291.71,2287.9,2296.45,2290.14z"/>
	<path class="st49" d="M1853.01,2061.57c27.96,0.06,47.21,19.71,47.26,48.26c0.05,28.63-19.73,48.74-47.76,48.55
		c-27.69-0.18-47.1-20.34-46.95-48.74C1805.72,2081.1,1825.06,2061.51,1853.01,2061.57z"/>
	<path class="st49" d="M2044.26,2247.37c0-14.16,0.01-26.5,0-38.85c-0.01-5.64-2.98-8.64-8.4-9.72c-1.63-0.33-3.77,0.48-5.54-2.67
		c7.09,0,13.53,0,19.98,0c4.54,0,9.07-0.01,13.61,0.03c1.2,0.01,2.66-0.01,2.62,1.74c-0.04,1.46-1.37,1.13-2.32,1.33
		c-9.57,1.95-10.95,3.63-10.97,13.68c-0.03,23.5,0.06,47-0.1,70.51c-0.02,2.56,1.86,6.42-1.68,7.55c-3,0.96-4.16-2.79-5.74-4.76
		c-18.01-22.53-35.94-45.14-53.9-67.71c-0.99-1.24-2.11-2.38-4.21-4.74c0,7.03,0,12.68,0,18.33c0,13.4,0,26.8,0,40.2
		c0,13.53,0.4,14.07,12.82,18.2c-11.58,0-23.17,0-34.9,0c0.57-2.48,2.88-1.54,4.37-1.78c5.76-0.94,8.79-4.1,8.8-10
		c0.01-24.12,0.03-48.24,0.02-72.36c0-6.11-4.82-6.22-9-7.09c-1.26-0.26-3.41,0.65-3.5-1.33c-0.12-2.6,2.31-1.74,3.72-1.75
		c9.89-0.08,19.79,0.1,29.68-0.13c3.26-0.08,4.74,1.74,6.45,3.87C2018.39,2215.3,2030.78,2230.64,2044.26,2247.37z"/>
	<path class="st49" d="M2148.38,2194.1c2.27,9.47,4.56,18.94,6.77,28.42c0.1,0.42-0.3,1.26-0.68,1.42
		c-1.18,0.51-1.92-0.37-2.48-1.24c-2.79-4.36-6.1-8.3-9.9-11.8c-7.25-6.67-15.55-10.8-25.69-9.85c-9.72,0.91-16.8,6.03-20.14,15.04
		c-6.29,16.98-6.7,34.34-0.1,51.29c5.55,14.25,18.24,19.94,33.14,16.31c3.27-0.8,4.41-2.07,4.33-5.36c-0.19-7.41,0-14.83-0.08-22.25
		c-0.09-9.13-1.59-10.89-11.47-12.94c14.86,0,28.72,0,42.64,0c0.03,2.24-1.43,1.96-2.51,2.15c-4.84,0.84-7.06,3.84-7.09,8.61
		c-0.06,8.45-0.09,16.89-0.12,25.34c-0.01,2.24,0.31,4.41-2.51,5.63c-17.46,7.51-35.24,11.73-53.86,4.72
		c-22.12-8.32-33.81-31.46-28.84-56.47c4.61-23.23,23.98-39.28,46.71-38.7c6.04,0.16,11.72,1.97,17.44,3.69
		c5.24,1.58,11.48,6.17,13-5.83C2147.41,2192.89,2147.9,2193.5,2148.38,2194.1z"/>
	<path class="st49" d="M2426.81,2194.96c0,10.33,0,20.66,0,31.98c-3.37-6.28-6.06-11.92-9.32-17.22
		c-5.24-8.5-12.5-13.51-23.11-12.02c-6.03,0.85-10.73,3.6-12.33,9.62c-1.68,6.33-0.69,12.32,4.82,16.78
		c5.22,4.22,11.42,6.48,17.68,8.53c4.51,1.48,8.95,3.08,13.1,5.38c18.29,10.19,19.75,34.64,2.42,46.51
		c-14.99,10.26-31.43,9.95-47.87,4.01c-4.98-1.8-9.15-4.12-12.08,3.72c-0.35-0.52-0.7-1.03-1.05-1.55c0-11.12,0-22.25,0-33.54
		c1.76,0.18,1.87,2.41,2.58,3.78c3.62,6.99,7.73,13.61,13.3,19.22c6.35,6.39,13.87,9.43,22.97,7.73
		c6.19-1.15,10.83-4.17,11.98-10.76c1.14-6.53-0.28-12.29-6.08-16.35c-6.86-4.8-14.86-6.9-22.62-9.59
		c-15.89-5.49-23.39-17.92-20.59-34.03c1.74-10.05,7.91-16.52,17-20.38c12.42-5.27,25.03-4.74,37.27,0.26
		C2419.49,2198.96,2422.77,2199.37,2426.81,2194.96z"/>
	<path class="st49" d="M1511.34,2211.41c-3.13-4.47-6.16-9.03-9.43-13.4c-3.48-4.66-7.8-8.48-12.82-11.45
		c-15.84-9.38-33.13-4.35-41.12,13.24c-10.02,22.08-10.07,44.95-0.06,67.02c8.88,19.59,28.61,23.59,45.61,10.4
		c6.12-4.75,10.61-10.86,14.74-17.31c0.95-1.49,1.23-3.54,3.2-4.25c1.37,0.43,1.3,1.37,1.03,2.46c-2.52,10.39-5.02,20.78-7.55,31.17
		c-0.27,1.09,0.03,2.73-1.78,2.68c-1.28-0.04-1.38-1.35-1.71-2.26c-1.77-4.92-5.38-2.83-8.21-1.84
		c-11.55,4.05-23.21,5.32-35.21,2.47c-22.17-5.25-37.17-22.48-39.87-45.66c-1.23-10.54-1.04-20.98,1.83-31.23
		c8-28.53,35.44-44.2,64.57-36.95c2.59,0.65,5.25,1.19,7.7,2.21c5,2.08,9.19,2.52,11.97-4.24c2.93,12.11,5.87,24.21,8.8,36.32
		C1512.46,2210.99,1511.9,2211.2,1511.34,2211.41z"/>
	<path class="st49" d="M1941.6,2258.4c-5.72-11.87-12.18-15.1-25.3-12.56c-2.36,0.46-2.4,1.69-2.4,3.4
		c0.01,9.89,0.14,19.79-0.07,29.68c-0.07,3.46,1.76,3.21,4.2,3.49c17.35,1.96,31.03-4.23,41.38-18.14c0.71-0.95,1.23-2.27,3.45-1.56
		c-1.25,6.14-5.19,11.3-6.86,17.22c-2.49,8.78-7.54,11.61-16.84,11.13c-17.68-0.91-35.44-0.24-53.16-0.3
		c-1.89-0.01-4,0.69-5.76-0.74c0.63-2.36,2.37-1.55,3.6-1.67c5.21-0.49,7.94-3.5,7.97-8.49c0.12-24.12,0.12-48.23,0.03-72.35
		c-0.02-4.93-2.53-8.11-7.69-8.86c-1.43-0.21-3.4,0.34-4.04-2.09c1.53-1.64,3.48-0.93,5.16-0.94c18.76-0.06,37.51,0.08,56.27-0.13
		c3.73-0.04,5.49,1.1,6.62,4.59c1.64,5.07,3.84,9.97,5.77,14.95c0.41,1.07,1.58,2.3,0.24,3.32c-1.91,1.46-2.45-0.71-3.22-1.62
		c-8.63-10.24-19.72-14.29-32.92-13.66c-3.25,0.15-4.24,1.05-4.18,4.25c0.17,9.07,0.14,18.14,0.01,27.21
		c-0.04,2.64,0.75,3.74,3.5,3.58c3.08-0.19,6.18,0.04,9.27-0.06c7.37-0.23,10.65-2.85,12.86-10.04c0.34-1.13,0.18-2.5,2.12-3.69
		C1941.6,2235.98,1941.6,2247.19,1941.6,2258.4z"/>
	<path class="st49" d="M2166.74,2289.33c0.46-0.29,0.93-0.85,1.38-0.84c8.71,0.31,10.58-4.86,10.56-12.49
		c-0.07-20.4-0.02-40.8-0.03-61.2c0-2.06,0.04-4.12-0.04-6.18c-0.21-5.59-2.39-9.51-8.58-10.09c-1.23-0.12-3.34,0.52-3.14-1.78
		c0.15-1.74,1.92-1.12,2.98-1.12c19.99-0.05,39.98,0.02,59.96-0.11c2.6-0.02,3.6,1.12,4.4,3.21c2.06,5.37,4.26,10.69,6.28,16.08
		c0.44,1.19,1.72,2.83-0.16,3.78c-1.49,0.76-2.05-0.96-2.77-1.82c-8.45-10.03-19.26-14.22-32.26-13.7c-3.51,0.14-5.22,0.6-5.07,4.68
		c0.3,8.64,0.19,17.31,0.04,25.96c-0.05,3.05,0.69,4.77,4.09,4.37c1.02-0.12,2.06-0.02,3.09-0.02c14.38,0.02,14.81-0.26,20.54-14.79
		c0,12.82,0,23.94,0,35.11c-2.08,0.02-1.62-1.58-1.89-2.63c-1.75-6.75-5.15-9.5-12.26-9.85c-13.53-0.66-13.53-0.66-13.53,12.77
		c0,6.39,0.17,12.78-0.07,19.16c-0.13,3.46,1,4.27,4.48,4.63c17.65,1.84,31.37-4.56,41.71-18.76c0.66-0.9,1.12-2.31,3.39-1.88
		c-0.71,5.13-4.28,9.17-5.4,13.95c-2.97,12.77-10.49,16.47-23.41,15.35c-15.95-1.38-32.12-0.33-48.19-0.33c-1.98,0-3.96,0-5.93,0
		C2166.86,2290.31,2166.8,2289.82,2166.74,2289.33z"/>
	<path class="st49" d="M1938.83,2063.94c-10.01,3.43-10.71,5.22-5.29,14.69c5.2,9.1,10.46,18.17,16.31,28.32
		c3.62-6.05,6.91-11.55,10.19-17.06c2.73-4.59,5.62-9.11,8.14-13.82c3.54-6.63,2.15-9.27-5.14-10.41c-0.83-0.13-1.61-0.2-1.74-1.84
		c10.68,0,21.32,0,31.96,0c-10.3,1.45-13.36,10.05-17.72,17.22c-3.2,5.27-5.79,10.99-9.53,15.85c-9.65,12.56-12.73,26.46-11.53,42.1
		c0.95,12.4,0.2,12.45,12.63,16.94c-16.22,0-30.71,0-45.25,0c0.12-0.5,0.14-1.16,0.31-1.2c10.16-2.44,9.77-2.96,10.72-13.69
		c1.37-15.45-2.09-29.04-11.16-41.63c-4.66-6.47-8.12-13.81-12.07-20.78c-3.86-6.82-7.31-14.11-16.92-14.66
		C1908.11,2063.94,1923.47,2063.94,1938.83,2063.94z"/>
	<path class="st49" d="M1797.75,2289.43c0.7-1.79,2.39-0.96,3.64-1.11c4.86-0.59,7.57-3.36,7.59-8.13c0.1-24.5,0.11-49-0.02-73.5
		c-0.02-4.43-2.64-7.14-7.15-7.98c-1.45-0.27-3.45,0.46-4.21-1.69c0.49-2.15,2.25-1.39,3.5-1.4c12.35-0.06,24.71-0.08,37.06,0.02
		c1.36,0.01,3.78-1.15,3.95,1.35c0.14,2.13-2.13,1.41-3.36,1.52c-5.55,0.46-8.2,3.76-8.23,8.94c-0.15,24.09-0.09,48.18-0.19,72.26
		c-0.01,2.84,1.36,3.18,3.77,3.45c17.24,1.89,31.05-4.02,41.61-17.76c0.97-1.26,1.63-4.19,3.95-2.63c1.54,1.04-0.27,2.9-0.86,4.27
		c-2.95,6.78-6.03,13.5-9,20.27c-0.85,1.93-1.49,3.55-4.24,3.54c-22.03-0.12-44.06-0.08-66.09-0.1
		C1798.67,2290.76,1797.84,2290.63,1797.75,2289.43z"/>
	<path class="st50" d="M1906.79,1987.6c10.72,0.04,21.43,0.08,32.15,0.12C1928.22,1989.69,1917.5,1990.02,1906.79,1987.6z"/>
	<path class="st0" d="M1719.37,1861.38c-3.3,7.74-6.35,14.22-8.8,20.92c-1.35,3.7-3.04,4.29-6.26,2.5
		c-1.61-0.89-3.35-1.59-5.11-2.14c-2.93-0.93-3.1-2.47-1.95-5.13c5.51-12.84,10.92-25.73,16.15-38.69c1.23-3.03,2.39-3.34,5.46-2.23
		c5.9,2.13,9.41,5.43,10.59,11.97c1.37,7.56,3.93,14.9,6.47,24.12c3.38-7.77,6.29-13.78,8.6-20.01c1.44-3.88,3.29-4.6,6.75-2.63
		c1.59,0.91,3.38,1.51,5.14,2.07c2.56,0.81,2.88,2.19,1.86,4.58c-5.72,13.42-11.41,26.86-16.9,40.38c-1.11,2.73-2.31,2.48-4.64,1.74
		c-5.49-1.75-8.89-4.63-10.11-10.79C1724.92,1879.45,1722.08,1871.1,1719.37,1861.38z"/>
	<path class="st0" d="M1566.36,1757.51c2.67,7.47,0.76,12.65-5,16.36c-6.02,3.87-11.52,1.87-16.47-2.08
		c-7.59-6.06-13.4-13.92-20.26-20.72c-1.85-1.84-1.2-3.05,0.41-4.54c10.55-9.81,21.09-19.63,31.55-29.54
		c1.94-1.84,3.28-1.81,5.05,0.18c5.9,6.59,12.26,12.8,17.8,19.68c5.36,6.65,4.25,14.67-1.63,19.16
		C1574.54,1758.49,1570.84,1757.9,1566.36,1757.51z"/>
	<path class="st0" d="M2256.43,1818.63c-4.2,3.08-7.72,5.52-11.08,8.17c-1.87,1.47-3.5,0.59-5.18-0.04
		c-3.86-1.44-7.69-2.92-11.51-4.45c-2.6-1.04-4.46,0.42-6.06,1.97c-2.01,1.96,0.52,3.18,1.24,4.59c0.74,1.45,1.74,2.83,2.88,4
		c3.17,3.26,2.84,5.38-1.15,8.01c-7,4.61-6.82,4.91-11.7-1.93c-7.19-10.06-14.26-20.19-21.61-30.13c-2.11-2.86-2.6-4.53,0.83-6.76
		c6.04-3.92,11.63-8.54,17.64-12.5c6.54-4.32,13.54-6.32,20.73-1.36c6.75,4.65,8.82,11.11,6.21,20.65
		c-0.76,2.78,0.41,3.18,2.26,3.84C2245.13,1814.53,2250.32,1816.42,2256.43,1818.63z"/>
	<path class="st0" d="M2130.32,1839.2c14.58,0.02,26.3,11.72,26.27,26.23c-0.02,14.61-12.92,26.81-28.31,26.77
		c-14.23-0.03-26.09-12.25-25.93-26.71C2102.52,1851.03,2115.13,1839.17,2130.32,1839.2z"/>
	<path class="st0" d="M1804.74,1897.61c0.91-11.84,6.74-19.84,16.92-23.23c10.38-3.45,24.69,0.23,31.38,7.78
		c1.89,2.13,1.45,3.13-0.42,4.89c-4.08,3.84-7.35,6.75-13,1.39c-4.42-4.19-11.62-3.22-16.04,0.29c-4.38,3.49-6.38,10.72-4.51,16.31
		c1.77,5.27,7.31,8.83,13.56,8.91c3.01,0.04,5.15-0.64,5.65-4.11c0.55-3.86-2.61-3.39-4.41-3.48c-5.07-0.25-3.93-3.42-3.69-6.51
		c0.28-3.63,2.06-4.4,5.35-3.61c4.8,1.16,9.63,2.2,14.5,2.99c3.17,0.52,4.1,2.01,3.42,5.03c-0.86,3.81-2.01,7.65-2.15,11.51
		c-0.23,6.4-3.83,8.85-9.45,10.11c-18.24,4.11-34.69-5.6-37.07-22.14C1804.49,1901.74,1804.74,1899.66,1804.74,1897.61z"/>
	<path class="st0" d="M2313.72,1737.53c-1.22,1.45-1.96,2.43-2.8,3.32c-3.65,3.92-7.23,7.91-11.03,11.67
		c-2.07,2.05-2.19,3.4,0.14,5.42c2.27,1.97,3.71,2.5,5.92-0.14c4.1-4.89,8.79-9.29,12.77-14.27c2.97-3.72,4.9-1.67,6.66,0.67
		c1.58,2.1,6.84,3.03,2.5,7.48c-7.92,8.1-15.67,16.36-23.29,24.75c-2.18,2.4-3.39,1.79-5.36-0.08
		c-10.46-9.92-20.99-19.77-31.6-29.53c-2.14-1.96-2.36-3.27-0.24-5.46c7.6-7.83,15.16-15.72,22.44-23.84c4-4.46,5.52,0.09,7.75,1.72
		c2.32,1.69,4.7,3.42,1.23,6.67c-4.5,4.22-8.53,8.94-12.83,13.37c-1.76,1.82-2.92,3.28-0.29,5.49c2.2,1.84,3.74,2.83,6.06,0.11
		c3.47-4.07,7.22-7.91,11-11.7c1.09-1.09,1.9-3.82,4.29-1.81C2309.32,1733.29,2311.44,1735.41,2313.72,1737.53z"/>
	<path class="st0" d="M1964.03,1933.29c-3.9,0-6.59-0.21-9.24,0.05c-4.15,0.4-7.29-0.41-8.18-5.12c-0.56-2.93-2.38-3.98-5.35-3.71
		c-2.86,0.27-5.78,0.41-8.63,0.13c-4.93-0.48-8.11,0.91-9.35,6.18c-0.71,3.01-11.99,5.59-14.47,3.64c-1.07-0.84-0.56-1.79-0.19-2.7
		c6.29-15.63,12.52-31.29,18.94-46.87c1.41-3.43,13.33-3.68,14.91-0.22C1949.68,1900.52,1956.62,1916.5,1964.03,1933.29z"/>
	<path class="st0" d="M1653.77,1801.19c-3.49,16.07-6.99,32.14-10.48,48.21c-0.22,1-0.3,2.1-1.58,2.31
		c-3.43,0.56-11.79-8.61-10.46-11.96c1.67-4.21,0.24-6.5-3.3-8.5c-2.49-1.42-4.9-3.08-7.07-4.96c-2.89-2.51-5.35-2.91-8.58-0.35
		c-3.11,2.47-12.79-1.04-14.43-4.8c-0.77-1.77,0.76-2.12,1.64-2.68c13.71-8.73,27.45-17.4,41.18-26.09
		c4.56-2.89,6.46,1.96,9.47,3.39C1652.2,1796.72,1655.02,1797.77,1653.77,1801.19z"/>
	<path class="st0" d="M2026.19,1923.8c-2.84,0.63-2.87-1.43-3.29-3.27c-3.14-13.83-6.27-27.66-9.53-41.45
		c-0.69-2.9,0.28-4.2,3.05-4.67c2.02-0.34,4.05-0.76,6.02-1.33c2.89-0.84,3.95,0.24,4.53,3.12c1.83,9.06,4.34,18,5.85,27.11
		c0.91,5.51,3.15,6.54,8.09,4.99c4.5-1.41,9.18-2.23,13.8-3.23c6.41-1.38,4.34,4.3,5.77,7.05c1.65,3.18,0.02,4.33-2.95,4.95
		C2047.07,1919.25,2036.63,1921.54,2026.19,1923.8z"/>
	<path class="st2" d="M1859.6,1246.55c-4.96,1.73-6.49,6.71-9.64,10.16c-18.98,21.46-41.85,38.39-64.68,55.34
		c-26.46,19.65-53.6,38.4-77.58,61.21c-22.85,21.73-42.02,45.82-50.19,77.15c-4.03-26.1,3.26-49.02,19.28-69.46
		c14.54-18.55,33.18-32.54,52.14-46.11c23.95-17.14,48.74-33.12,71.38-52.07c31.72-26.54,56.26-57.81,66.11-98.92
		c3.31-13.83,4.97-27.89,4.62-42.69c5.52,1.69,8.78,5.56,12.17,8.84c27.14,26.29,43.24,58.23,48.43,95.7
		c4.48,32.39,0.8,63.64-12.66,93.54c-8.63,19.19-21.23,35.71-35.27,51.19c-20.66,22.78-44.47,42.33-65.82,64.4
		c-14.87,15.38-28.74,31.57-33.92,52.96c-2.8,11.56-3.73,23.55-5.87,35.28c-6.4,35.15-16.54,68.94-37.66,98.43
		c-11.96,16.7-26.59,30.34-46.06,38.03c-1.33,0.53-2.72,0.96-4.11,1.29c-0.54,0.13-1.17-0.15-1.74-0.25
		c-0.52-2.06,1.09-3.05,1.97-4.32c21-30.49,32.99-64.2,37.18-100.96c2.65-23.27,1.88-46.41,0.12-69.65
		c-1-13.15-0.89-26.37-0.2-39.56c0.87-16.75,10.52-29.01,21.06-40.86c19.43-21.86,39.58-43.09,57.65-66.15
		c29.28-37.38,52.93-77.57,62.68-124.75c0.33-1.61,0.55-3.24,0.82-4.87c0.58-1.1-0.26-2.25,0.58-4.54c-0.81,1.98-1.24,2.73-1.92,3.3
		C1864.63,1233.93,1863.84,1241.08,1859.6,1246.55z"/>
	<path class="st2" d="M2307.44,1378.07c-28.39-8.86-55.53-20.7-81.97-34.26c-31.63-16.21-60.79-36.25-89.88-56.55
		c-30-20.94-56.18-46.42-84.72-69.05c-21.2-16.8-43.71-30.99-70.8-36.19c-5.59-1.07-11.27-1.72-18.01-2.74
		c23.43-27.56,23.04-59.91,19.63-93.94c5.71,3.25,8.54,7.01,11.62,10.45c47.99,53.54,95.13,107.89,147.31,157.5
		c41.57,39.52,84.89,76.91,134.53,106.25c10.83,6.4,21.93,12.27,33.47,17.29C2308.97,1377.95,2308.71,1378.49,2307.44,1378.07z"/>
	<path class="st3" d="M2036.54,1376.63c-4.14,21.48-13.79,38.92-26.74,54.71c-19.54,23.83-45.13,38.62-73.6,49.12
		c-18.84,6.95-36.88,15.53-52.1,28.93c-11.71,10.31-19.98,22.45-18.33,39.2c0.39,3.95,1.73,7.56,3.38,11.95
		c-2.92-0.7-4.27-2.49-5.56-4.06c-4.42-5.42-8.44-11.19-13.05-16.44c-8.01-9.11-7.96-19.22-4.92-30.11
		c4.45-15.96,14.83-26.79,29.09-34.29c17.53-9.21,36.74-13.12,55.82-17.42c22.65-5.1,44.47-12.16,63.28-26.52
		c15.63-11.94,25.87-28.02,35.27-44.82C2030.95,1383.55,2032.64,1380.04,2036.54,1376.63z"/>
	<path class="st3" d="M2464.88,1397.68c1.32-8.77,6.94-14.15,13.5-18.55c10.71-7.19,23.01-9.84,35.61-11.09
		c20.4-2.04,40.3,0.91,59.59,7.38c15.71,5.26,26.59,15.41,29.06,32.72c0.41,2.85,0.82,5.72-1.21,8.97
		c-2.25-3.95-4.15-7.68-6.42-11.17c-7.52-11.55-16.14-14.4-29.18-9.84c-1.17,0.41-2.33,0.83-3.45,1.34
		c-7.21,3.31-13.85,3.12-21.82,0.56C2515.79,1390.03,2490.56,1388.78,2464.88,1397.68z"/>
	<path class="st3" d="M2565.7,1241.38c-8.07,0.61-14.36,0.85-20.48,2.51c-13.46,3.66-18.49,9.91-18.67,23.7
		c-0.21,16.23-8.42,28.04-20.78,37.47c-10.37,7.91-22.24,13.17-34.2,19.18c0.4-13.2,6.34-22.79,16.2-30.23
		c4.11-3.1,8.34-6.04,12.56-9c9.55-6.71,14.68-15.73,15.33-27.52c0.57-10.34,8.29-18.91,19.31-22.48
		C2545.77,1231.5,2555.29,1233.92,2565.7,1241.38z"/>
	<path class="st3" d="M1959.99,1242.98c17.63,5.7,34.35,12.91,46.29,28.01c6.76,8.56,9.67,18.52,10.53,29.19
		c0.3,3.69-0.31,7.5,0.33,11.11c3.14,17.72-8.49,27.46-20.47,37.28c1.57-5.8,3.25-11.58,4.7-17.41c3.9-15.63,5.27-31.3-0.43-46.81
		c-7.44-20.22-23.16-31.91-42.05-40.21C1958.51,1243.04,1958.7,1242.49,1959.99,1242.98z"/>
	<path class="st51" d="M2307.44,1378.07c0.39-0.42,0.78-0.83,1.17-1.25c3.01,1.2,6.03,2.4,9.04,3.61
		C2313.82,1381.02,2310.56,1379.79,2307.44,1378.07z"/>
	<path class="st52" d="M1959.99,1242.98c-0.37,0.39-0.73,0.77-1.09,1.16c-2.14-0.93-4.76-0.89-6.91-3.61
		C1955.21,1241.12,1957.78,1241.35,1959.99,1242.98z"/>
	<path class="st53" d="M1868.45,1228.25c0.15-1.43,0.37-2.83,1.84-3.75c1.17,1.85,0.6,3.44-0.5,4.99
		C1869.34,1229.07,1868.9,1228.66,1868.45,1228.25z"/>
	<path class="st54" d="M2317.47,1392.96c-0.03-0.47-0.05-0.93-0.08-1.4c1.66,0.5,3.32,1.01,5.36,1.63
		C2320.54,1394.41,2318.94,1394.38,2317.47,1392.96z"/>
	<path d="M1757.17,633.32c-0.38-1.41-0.12-3.08-1.61-4.07C1759,629.46,1757.55,631.6,1757.17,633.32z"/>
	<path class="st2" d="M1839.77,903.26c-5.12-5.23-6.83-10.74-8.37-16.26c-4.68-16.74-6.13-33.98-7.52-51.21
		c-0.53-6.52-1.01-13.04-1.62-20.99c-5.66,7.11-10.53,13.29-15.45,19.41c-13.76,17.12-30.59,30.59-49.97,40.72
		c-22.16,11.59-44.27,23.1-60.8,42.65c-0.19,0.22-0.74,0.13-1.12,0.17c-4.67-42.19,6.19-76.46,43.59-96.47
		c10.71-5.73,21.78-10.8,32.63-16.27c15.13-7.61,28.44-16.92,32.1-35.07c0.37-1.85,1.3-2.94,3.49-2.07
		c22.41,8.89,41.93,20.9,47.94,46.51c3.68,15.7,0.62,31.12-3.37,46.35C1847.66,874.63,1843.79,888.46,1839.77,903.26z"/>
	<path class="st2" d="M1789.46,911.33c0,14.97,0.11,29.39-0.07,43.81c-0.05,4.19,1.16,7.46,3.87,10.65
		c7.48,8.79,14.62,17.85,22.02,26.7c2.23,2.66,2.44,4.11-1.5,4.68c-4.47,0.65-8.89,1.8-13.38,2.2c-5.72,0.51-9.19,3.35-11.8,8.4
		c-8.22,15.89-6.13,31.99-1.3,48.09c5.99,19.99,15.8,38.47,23.21,57.91c4.79,12.56,8.85,25.28,8.44,38.98
		c-0.12,3.92-0.66,7.71-2.53,12.43c-3.21-5.28-5.94-9.89-8.78-14.43c-13.34-21.31-28.32-41.6-40.3-63.73
		c-20.7-38.23-15.93-75.32,6.06-111.32c2.95-4.82,8.52-7.01,12.69-11.78c-5.32,0.34-9.52,2.1-13.63,4.1
		c-17.66,8.59-32.19,21.45-46.35,34.67c-15.98,14.92-31,30.78-44.62,47.92c-0.76,0.95-1.24,2.12-2.4,4.15
		c-1.83-4.23-0.64-6.46-0.01-8.67c6.39-22.51,19.48-41.18,33.93-59.07c22.25-27.53,49.43-50.18,74.26-75.16
		C1787.51,911.64,1788.01,911.67,1789.46,911.33z"/>
	<path class="st2" d="M1691.87,1285.36c16.97-27.37,15.93-54.75,6.47-82.64c-2.98-8.78-7.16-17.05-11.46-25.3
		c-2.83-5.42-5.48-5.26-10.02-2.46c-11.09,6.84-22.77,12.49-35.59,15.34c-24.93,5.55-45.89-2.01-63.53-19.78
		c-3.9-3.93-6.91-8.62-8.19-15.88c21.83,21.18,46.22,26.58,73.26,16.1c26.53-10.28,42-30.7,49.44-58.59
		c8.41,7.73,14.86,16.2,21.06,24.83c11.86,16.5,21.66,34.05,26.51,54.02c8.16,33.59-1.81,60.86-28.74,82.15
		C1705.47,1277.62,1699.55,1281.66,1691.87,1285.36z"/>
	<path class="st2" d="M1818.45,650.63c-2.99,39.15-25.05,63.47-56.18,81.19c-23.8,13.55-47.82,26.71-72.37,38.88
		c-5.77,2.86-6.23,2.62-5.75-3.8c1.13-14.9,7.06-27.78,16.96-38.9c17.15-19.27,39.78-30.3,62.32-41.48
		c11.07-5.49,22.21-10.83,33.1-16.66C1804.89,665.4,1812.86,660.24,1818.45,650.63z"/>
	<path class="st3" d="M1991.08,607.08c-13.47-6.09-26.21-13.36-37.34-23.21c-7.83-1.33-12.19,4.21-16.53,8.95
		c-9.52,10.38-14.97,22.87-17.15,38.17c-7.61-12.28-10.72-24.48-12.01-37.24c-0.64-6.34-1.02-12.72-1.22-19.1
		c-0.11-3.46-1.9-5.77-4.16-7.95c-8.58-8.25-18.51-14.38-29.56-18.74c-1.66-0.66-3.33-1.31-4.9-2.53
		c6.94-1.55,13.78-0.73,20.19,1.86c12.02,4.86,24.13,9.66,35.65,15.58c14.79,7.6,29.19,9.94,44.54,1.84
		c4.28-2.26,9.56-4.57,14.01-3.99c4.44,0.58,5.84,6.83,8.82,10.41c9.77,11.71,19.58,23.38,30.41,34.13
		c18.32,18.19,47.39,13.21,58.7-10.41c1.7,5.19-0.02,9.86-0.63,14.47c-1.39,10.63-3.35,21.16-7.95,30.98
		c-1.03,2.19-2.12,5.06-4.98,4.88c-2.63-0.17-1.88-3.29-2.64-5.04c-2.45-5.63-6.85-9.18-11.98-12.03
		c-6.15-3.42-12.78-5.7-19.46-7.82C2018.95,615.86,2005.01,611.48,1991.08,607.08z"/>
	<path class="st3" d="M1893.9,811.29c-3.82-3.58-5.82-7.2-7.78-10.74c-9.63-17.45-17.26-35.54-18.16-55.89
		c-0.62-14.1,2.59-26.94,11.12-38.3c0.97-1.29,1.91-3.28,3.59-3.09c1.93,0.22,1.69,2.53,2.1,4.04c2.75,9.92,6.31,19.72,7.94,29.82
		c1.58,9.83,7.27,13.12,15.92,14.92c14.33,2.99,28.77,5.25,43.27,6.93c16.75,1.95,33.55,3.59,50.43,4.42
		c8.46,0.42,14.59-1.91,19.81-8.44c4.85-6.07,10.35-11.63,15.32-17.14c1.79,0.23,1.82,1.19,1.72,1.92
		c-2.42,16.86-11.62,34.18-32.37,36.94c-10.69,1.42-21.31,1.3-32.04,0.48c-12.74-0.98-25.59-1.46-38.31-0.22
		C1915.44,779.01,1900.74,789.76,1893.9,811.29z"/>
	<path class="st3" d="M1541.86,1069.7c18.63,0.85,35.62-0.93,50.72-10.94c15.01-9.95,23.45-24.32,28.05-42.26
		c9.46,10.19,15.62,21.48,20.99,33.22c6.03,13.2,10.16,27.03,11.12,41.56c1.36,20.69-6.74,50.22-31.68,58.98
		c-3.07,1.08-6.26,1.8-9.74,2.28c11.11-10.96,18.51-23.93,22.4-38.77c3.99-15.22,4.06-30.11-4.86-44.05
		c-2.74-4.29-4.82-5.71-9.44-1.83c-9.01,7.57-18.89,13.89-30.32,17.49C1571.42,1090.95,1554.5,1085.75,1541.86,1069.7z"/>
	<path class="st2" d="M1989.39,516.85c-7.29,17.35-19.97,24.69-40.36,23.4c-0.26-1.24-0.02-2.14,0.47-2.86
		c0.22-0.33,0.51-0.63,0.82-0.89c1.13-0.17,2.24-0.41,3.35-0.72c6.47-2.77,12.2-6.74,17.52-11.27c5.27-4.48,5.07-7.66-1.04-10.57
		c-9.11-4.32-18.53-7.84-28.55-9.48c-16.65-2.72-33.48-3.69-50.32-4.4c-4.74-0.2-9.76-1.14-14.15,1.92
		c-17.42,1.77-34.22-3.02-51.42-4.55c3.98-2.96,8.59-3.84,12.99-5.08c27.4-7.86,55.25-13.3,83.88-12.31
		c22.52,0.78,44.16,5.13,62.43,19.76C1993.07,506.22,1993.4,507.31,1989.39,516.85z"/>
	<path class="st3" d="M1761.22,647.54c1.35-9.03,2.46-16.33,3.52-23.63c0.23-1.55,1.44-3.37-0.21-4.62
		c-1.81-1.37-3.57,0.13-5.12,0.94c-8.8,4.58-16.72,10.54-24.82,16.2c-7.03,4.91-14.08,9.79-21.64,14.24
		c3.73-16.36,9.91-31.33,20.53-44.31c9.25-11.31,20.72-18.49,35.34-20.71c13.37-2.03,16.97-0.01,17.22,13.12
		C1786.42,618.56,1777.66,634.23,1761.22,647.54z"/>
	<path class="st3" d="M1606.35,683.04c9.96-7.54,19.34-14.85,28.07-22.98c16.57-15.44,26.65-34.8,34.75-55.5
		c5.07-12.94,11.98-24.83,21.8-34.85c1.9-1.94,3.67-3.86,6.83-3.33c17.99,2.99,36.11,1.25,54.18,1.38c1.02,0.01,2.03,0,3.11,0.42
		c-10.5,0.32-20.76,1.75-30.5,5.78c-19.54,8.08-32.65,23.19-43.81,40.34c-2.8,4.3-5.28,8.84-7.59,13.44
		c-13.67,27.24-36.55,43.89-63.7,55.66c-0.55,0.24-1.19,0.27-1.8,0.34C1607.52,683.74,1607.33,683.55,1606.35,683.04z"/>
	<path d="M1953.67,535.78c-1.37,0.83-2.76,1.34-4.17,1.61c-4.13,0.82-8.38-0.3-12.57-0.52c4.48,0.11,8.96,0.33,13.39-0.37
		C1951.45,536.32,1952.56,536.09,1953.67,535.78z"/>
	<path class="st3" d="M1869.78,460.3c-10.49,2.63-19.24,4.75-27.96,7.04c-3.58,0.94-7.12,2.07-10.58,3.38
		c-23.41,8.84-25.72,12.08-27.13,36.78c-0.49,8.64-1.83,17.19-4.15,25.54c-0.51,1.85-0.78,4.64-3.03,4.9
		c-2,0.23-2.45-2.44-3.43-3.94c-7.87-12.07-15.3-24.5-26.58-33.86c-3.49-2.9-0.44-4.23,1.19-5.66
		c10.52-9.19,22.74-15.52,35.59-20.75C1822.23,466.18,1853.94,459.49,1869.78,460.3z"/>
	<path class="st3" d="M1546.82,662.68c6.06,9.54,11.83,17.19,18.92,23.79c11.78,10.96,25.56,16.93,41.71,17.35
		c11.13,0.29,22.17-0.4,33.18-2.13c3.58-0.56,7.25-0.49,11.12,0.27c-7.65,3.28-15.88,5.64-22.82,10.03
		c-14.25,9.01-29.67,7.77-44.75,5.7c-20.11-2.76-31.6-15.15-35.95-35.5C1546.98,676.36,1546.33,670.46,1546.82,662.68z"/>
	<path class="st3" d="M2107.56,539.62c-2.98,15.25-10.11,25.96-20.4,34.67c-9.41,7.97-13.85,7.64-22.43-1.53
		c-9.31-9.94-13.7-22.32-16.71-35.3c-0.71-3.08-0.13-4.68,3.74-3.51c6.89,2.07,13.95,3.51,21.15,4.2c1.37,0.13,2.9,0.7,3.95,1.56
		C2086.46,547.47,2096.26,549.51,2107.56,539.62z"/>
	<path class="st3" d="M1593.81,885.79c-3.69,0.39-7.37,0.77-11.05,1.16c-5.01,0-10.02-0.01-15.03-0.01
		c-16.77-1.41-28.54-8.12-35.38-20.31c0.55-0.16,1.18-0.58,1.54-0.41c20.8,9.53,41.98,7.7,63.32,2.25
		c13.83-3.53,26.65-9.59,39.58-15.38c1.31-0.23,1.83,0.33,1.62,1.62c-8.59,8.15-17.18,16.32-25.79,24.46
		C1607.34,884.15,1600.2,883.93,1593.81,885.79z"/>
	<path class="st55" d="M1953.67,535.78c-0.15,2.94-4.03,1.99-4.64,4.47c-3.88-4.11-9.69-0.45-13.84-3.41c0.43,0,0.87,0.01,1.3,0.02
		c0.15,0,0.3,0.01,0.45,0.01c4.48,0.11,8.96,0.33,13.39-0.37C1951.45,536.32,1952.56,536.09,1953.67,535.78z"/>
	<path class="st56" d="M1638.41,854.7c-0.54-0.54-1.08-1.08-1.62-1.62c1.44-1.51,3.19-2.48,5.5-3.12
		C1642.04,852.58,1640.04,853.5,1638.41,854.7z"/>
	<path class="st57" d="M1757.17,633.32c-0.38-1.41-0.12-3.08-1.61-4.07c0.58-0.85,1.73-1.58,2.28-0.75
		C1758.88,630.08,1758.06,631.8,1757.17,633.32z"/>
	<path class="st2" d="M1572.64,1481.78c-4.61,9.55-9.09,19.24-22.84,16.37c-2.44-0.51-5.25,0.73-7.89,1.16
		c-0.61,0.5-1.24,0.92-1.88,1.29c-0.89,0.52-1.79,0.93-2.73,1.25c-4.22,1.48-8.82,1.24-13.21,1.39c-0.32,0.01-0.63,0.02-0.95,0.04
		c-1.92,0.1-3.84,0.16-5.75,0.2c-1.13,0.05-2.24,0.06-3.37,0.07c-7.89,0.12-15.8-0.05-23.69-0.09c-1.01-0.01-2.04-0.01-3.06-0.01
		h-0.35c-3.98,0.33-7.91-0.12-11.83-0.66c-0.02,0-0.05,0-0.07-0.01c-1.77-0.25-3.54-0.49-5.31-0.69c-2.07-0.46-4.13-0.92-6.2-1.4
		c-4.22-1.01-8.4-2.13-12.51-3.53c-1.03-0.35-2.04-0.72-3.06-1.1c-2.8-0.97-5.52-2.05-8.19-3.27c-0.05-0.01-0.1-0.04-0.15-0.06
		c-8.21-3.7-15.91-8.35-23.54-13.11c-2.66-1.65-5.31-3.3-7.97-4.94c-1.76-1.04-2.89-2.86-4.79-3.72c-2.73-2.35-6.19-3.92-8.87-6.35
		c-0.79-0.71-1.51-1.48-2.12-2.38c-0.56-0.8-1.03-1.69-1.39-2.7c-18.78-15.74-33.26-35.1-44.07-56.74
		c-15.42-30.82-53.66-34.22-76.58-19.99c-0.64,0.41-1.27,1.14-2.65,0.16c10.33-16.7,24.39-27.94,44.22-31
		c15.91-2.46,30.92-0.74,43.31,10.76c7.48,6.97,12.57,15.72,17.16,24.78c6.59,13.04,12.88,26.27,20.67,38.67
		c19.58,31.14,48.92,46.11,84.39,50.61c29.84,3.77,59.53,1.6,89.1-3.2c2.73-0.45,6.38-2.39,8.17-0.25
		C1576.86,1475.97,1573.93,1479.1,1572.64,1481.78z"/>
	<path class="st3" d="M1389.69,1193.56c14.16-37,25.24-74.89,32.72-113.81c5.81-30.18,9.56-60.63,9.03-91.39
		c-0.43-24.98-3.66-49.59-11.9-73.44c-7.64-22.12-22.98-35.68-44.81-42.37c-42.96-13.17-85.62,7.2-102.79,48.78
		c-0.81,1.96-1.03,5.17-3.91,4.84c-3.2-0.37-2.9-3.82-2.94-5.99c-0.24-11.49,3.74-21.81,9.73-31.4
		c12.95-20.75,30.52-36.04,54.71-41.35c27.85-6.11,52.77,1.72,73.91,20.48c25.46,22.6,38.24,51.66,40.8,85.29
		c5.59,73.45-5.44,144.11-36.28,211.31c-4.98,10.86-10.46,21.49-17.08,31.48C1388.64,1196.09,1388.88,1194.97,1389.69,1193.56z"/>
	<path class="st3" d="M1337.82,578.79c-14.04,16.27-26.72,33.45-36.14,52.91c-20.32,42.01-14.05,80.57,14.38,116.58
		c12.28,15.56,26.73,29.15,39.49,44.25c4.49,5.32,9.06,10.64,11.79,18.42c-9.23-0.61-17.9-0.53-26.54,0.24
		c-15.43,1.36-30.03,5.03-42.81,14.27c-11.18,8.08-17.73,19.26-21.66,32.22c-0.58,1.91-0.37,4.17-2.55,5.95
		c-5.78-14.55-4.21-27.79,5.25-40.09c6.51-8.47,15.06-14.57,23.66-20.62c4.88-3.44,9.95-6.65,14.59-10.39
		c4.35-3.51,4.02-5.89-0.52-9.12c-28.43-20.27-42.36-48.85-45.77-82.69c-4.37-43.4,14.9-77.26,45.11-106.25
		c6.41-6.15,13.24-11.76,20.35-17.06C1337.74,577.06,1338.09,577.61,1337.82,578.79z"/>
	<path class="st3" d="M1491.53,604.9c-53.13,45.81-79.8,99.56-60.05,169.53c-2.13,0.45-2.47-1.31-3.06-2.35
		c-5.93-10.37-11.42-21.01-17.75-31.12c-5.49-8.78-6.56-17.84-4.77-27.77c9.03-50.06,36.2-86.12,82.48-107.57
		C1488.9,605.37,1489.51,605.34,1491.53,604.9z"/>
	<path class="st3" d="M1554.22,1551.26c-6.15,0.4-12.31,0.81-18.46,1.21c-5.41-0.01-10.83-0.01-16.24-0.02
		c-13.74,0.43-27.23-1.96-40.78-3.67c-41.19-7.68-77.56-24.52-106.39-55.79c-3.94-5.64-8.44-10.9-11.29-17.25
		c-0.37-1.31,0.2-1.62,1.37-1.32c32.92,37.69,74.15,60.1,123.79,66.53c30.42,3.94,60.36,0.41,89.68-8.17
		c5.98-1.75,10.25-0.42,14.59,3.33c3.36,2.91,4.04,4.71-0.96,6.57C1578.08,1546.96,1566.16,1549.11,1554.22,1551.26z"/>
	<path class="st58" d="M1541.91,1499.31c-0.01,0.69-0.02,1.37-0.04,2.05c-1.52,0.16-3.04,0.32-4.58,0.48
		c-4.4,0.46-8.81,0.92-13.21,1.39c-1.93,0.2-3.87,0.41-5.8,0.61c-1.42-0.14-2.85-0.23-4.27-0.3c-7.57-0.36-15.16,0.17-22.73-0.17
		c-0.3-0.01-0.63,0.02-0.96,0.09c-1.05,0.19-2.2,0.53-3.06-0.01c-0.22-0.14-0.43-0.35-0.61-0.64c-0.16-0.27-0.3-0.61-0.41-1.03
		C1504.83,1501.65,1523.45,1502.36,1541.91,1499.31z"/>
	<path class="st9" d="M1404.53,1470.52c-0.07,0.42-0.43,0.56-1.27,0.17c-2.94-2.03-5.89-4.06-8.82-6.09
		c-1.73-1.2-3.45-2.39-5.18-3.59c0.56-0.49,1.13-0.99,1.68-1.48c4.5,3.34,9.01,6.68,13.51,10.02
		C1404.54,1469.95,1404.59,1470.28,1404.53,1470.52z"/>
	<path class="st59" d="M1389.69,1193.56c0.4,0.81,0.8,1.62,1.19,2.42c-1.3,2.19-2.6,4.39-3.9,6.58
		C1386.69,1199.04,1388,1196.23,1389.69,1193.56z"/>
	<path class="st60" d="M1337.82,578.79c-0.46-0.46-0.91-0.92-1.37-1.37c1.69-1.37,3.38-2.73,6.23-5.04
		C1341.49,576.12,1339.67,577.46,1337.82,578.79z"/>
	<path class="st61" d="M1362.43,1474.43c-0.46,0.44-0.91,0.88-1.37,1.32c-1.07-1.17-2.1-2.36-1.83-4.24
		C1361.23,1471.54,1361.68,1473.15,1362.43,1474.43z"/>
	<path class="st3" d="M2415.95,913.96c-4.76-5.07-6.85-10.91-9.36-16.47c-5.26-11.62-10.32-23.33-15.56-34.96
		c-0.71-1.57-1.04-2.93-0.8-4.68c5.8-41.78,15.01-82.58,34.77-120.31c7.92-15.12,16.8-29.64,28.07-42.78
		c-2.81,10.34-5.83,20.63-8.4,31.04c-7.7,31.22-11.49,63.04-14.81,94.96c-2.83,27.18-4.19,54.54-9.71,81.39
		C2419.36,905.96,2418.46,909.74,2415.95,913.96z"/>
	<path class="st3" d="M2640.48,587.31c-4.8-1.07-9.33-2.26-13.93-3.07c-9.72-1.71-18.44-0.02-25.26,7.85
		c-4.45,5.14-9.52,9.81-13.47,15.3c-6.34,8.81-15.1,12.03-25.28,13.5c-10.98,1.58-22.07,2.77-32.75,6.05
		c-6.14,1.89-12.06,4.25-17.16,8.27c-11.78,9.27-12.68,21.83-10.55,35.28c0.19,1.17,1.06,2.3,0.14,3.67
		c-3.58-0.1-5.14-2.95-6.88-5.38c-12.75-17.89-8.85-43.11,8.66-57.78c17.47-14.63,38.38-21.23,60.05-26.01
		c7.43-1.64,15-2.6,22.48-3.99c3.18-0.59,6.16-1.22,8.9-3.65C2610.02,564.35,2631.67,569.1,2640.48,587.31z"/>
	<path class="st3" d="M2454.9,762.46c4.23-16.72,18.89-28.56,33.41-27.2c6.63,0.62,12.9,4.17,19.69,4.91
		c24.86,2.73,46.99-2.92,64.83-21.47c2.76-2.87,5.29-6.16,5.98-9.95c1.06-5.83,4.78-8.75,9.49-11.15
		c6.05-3.09,12.06-6.24,18.11-9.31c1.07-0.55,2.49-1.23,3.3,0.1c0.41,0.66-0.07,1.92-0.27,2.88c-0.12,0.59-0.41,1.17-0.74,1.69
		c-9.88,15.64-19.23,31.65-29.84,46.78c-9.42,13.44-23.8,18.73-39.73,21.04c-15.81,2.29-30.68-1.38-45.55-5.58
		C2480.04,751.38,2467.12,750.83,2454.9,762.46z"/>
	<path class="st3" d="M2606.4,495c-1.33,0.37-1.89,0.71-2.39,0.63c-16.89-2.46-27.74,6.46-36.29,19.44
		c-2.5,3.79-5.04,5.08-10.01,4.85c-15.63-0.73-30.54,1.62-40.66,15.69c-3.82,5.31-5.55,11.43-6.63,17.77
		c-0.54,3.2-0.98,6.41-1.56,10.25c-4.94-3-5.78-7.37-5.85-11.88c-0.5-32.47,11.25-48.24,47.35-53.21c5.91-0.81,11.09-2.31,16.1-5.37
		C2580.12,484.86,2592.06,485.33,2606.4,495z"/>
	<path class="st3" d="M2303.82,807.86c2.52-18.73,8.8-33.41,20.77-46.59c30.62-33.71,59.48-68.96,86.23-105.87
		c6.27-8.65,12.06-17.64,18.54-26.26c-1.29,6.33-4.18,12.04-7.18,17.65c-17.1,31.93-38.78,60.76-61.03,89.17
		C2342.62,759.62,2323.69,782.97,2303.82,807.86z"/>
	<path class="st3" d="M1798.87,397.54c9.21-12.13,8.4-25.47,4.65-41.06c13.7,11.03,26.11,21.15,43.27,19.42
		c17.58-1.77,26.88-14.41,35.79-28.43c8.56,13.89,18.28,26.27,35.45,28.14c16.74,1.82,29.11-8.01,42.24-18.7
		c-2.76,15.69-5.15,30.09,7.33,41.83c-27.11-11.04-55.18-16.92-84.14-17.58C1854.3,380.48,1826.15,386.06,1798.87,397.54z"/>
	<path class="st3" d="M2064.91,355.42c-10.75,2.34-14.7,10.49-17.49,19.71c-0.95,3.15-2.09,6.25-3.13,9.37
		c-3.36,10.07-9.97,16.87-20.14,20.14c-2.94,0.94-5.9,1.87-8.75,3.04c-9.1,3.73-14.69,10.3-16.08,20.22
		c-0.31,2.19-0.82,4.35-1.44,7.61c-8.53-9.59-12.84-19.85-13.35-31.74c-0.14-3.11,1.92-3.26,4.16-2.68c4.26,1.1,8.6,0.88,12.91,0.83
		c12.77-0.15,22.06-5.75,27.25-17.64c2.55-5.85,4.85-11.82,8.91-16.89C2044.64,358.78,2053.31,354.16,2064.91,355.42z"/>
	<path class="st3" d="M1701.16,354.96c8.01-1.42,14.64,1.07,20.5,5.82c5.69,4.61,9.76,10.43,12.5,17.29
		c7.86,19.65,18.45,25.72,39.38,22.84c8.11-1.12,8.42-0.91,7.05,7.38c-1.64,9.88-5.87,18.57-12.34,26.29
		c-1.98-1.38-1.26-2.94-1.38-4.24c-1.07-11.86-7.06-19.88-18.38-23.8c-2.52-0.87-5.09-1.64-7.61-2.53
		c-9.78-3.43-16.26-10.13-19.6-19.9c-1.13-3.3-2.27-6.61-3.25-9.96C1715.43,365.21,1711.92,357.1,1701.16,354.96z"/>
	<path class="st3" d="M1855.97,273.65c6.74,7.63,13.49,15.24,20.19,22.9c1.71,1.96-0.12,3.41-1.01,4.92
		c-6.72,11.38-6.29,21.4,2.08,31.97c2.78,3.51,2.96,6.06,0.43,9.67c-2.99,4.27-5.36,8.98-8.57,14.48
		c-1.25-4.97-0.21-8.49,0.27-12.04c1.03-7.55,0.32-8.24-7.15-7.72c-4.71,0.33-9.44,0.52-14.16,0.71c-0.75,0.03-1.52-0.25-3.39-0.6
		c5.03-6.35,11.14-9.63,19.08-12.65c-7.99-3.46-14.85-6.44-22.41-9.71c6.39-4.55,13.2-3.79,20.51-4.16
		c-4.19-6.29-10.91-9.27-15.28-15.25c5.38-2.18,9.99,1.1,15.68,1.69C1858.29,289.97,1855.48,282.46,1855.97,273.65z"/>
	<path class="st3" d="M1903.95,325.19c7.39,3.45,13.56,6.55,18.19,12.47c-6.83,0-13.22,0.19-19.6-0.07
		c-3.99-0.16-5.58,0.73-4.72,5.16c0.91,4.71,0.97,9.58,0.35,14.76c-3.39-5.78-6.73-11.59-10.19-17.32c-1.36-2.25,0.28-3.38,1.4-4.78
		c8.7-10.94,10.81-22.42,2.73-34.67c-1.15-1.74-1.5-3.17,0.09-4.93c5.78-6.36,11.45-12.82,17.78-18.98
		c0.2,7.68-2.98,14.31-6.93,21.51c5.72-1.5,10.59-4.15,16.77-2.51c-4.03,6.09-10.93,9.13-15.33,15.52
		c7.28,0.5,14.02,0.28,21.32,4.02C1918.16,318.81,1911.58,321.77,1903.95,325.19z"/>
	<path class="st62" d="M1794,378.39c2.96-5.71,2.97-11.87,2.7-18.05c-0.15-3.55-1.62-3.82-4.84-2.6c-3.97,1.51-7.14,7.98-11.72,4.22
		c-3.36-2.76-4.63-8.07-6.83-12.25c-0.72-2.56-1.56-5.1-2.11-7.7c-0.39-1.84-1.81-4.53,1.15-5.11c2.47-0.49,5.51-0.19,6.44,3.21
		c0.98,3.55,1.91,7.12,2.77,10.71c0.75,3.12,2.24,4.19,5.18,2.25c1.19-0.79,2.49-1.43,3.79-2.04c3.06-1.44,6.29-5.58,9.04-3.72
		c2.43,1.64,0.89,6.52,0.75,9.95c-0.31,7.61-1.48,15.09-4.87,22.04c-0.07,0.15-0.28,0.24-0.42,0.36
		C1794.69,379.23,1794.34,378.81,1794,378.39z"/>
	<path class="st3" d="M1882.42,253.83c5.68,12.97,9.55,24.61,3.99,37.25c-0.71,1.61-1.37,3.92-3.47,3.92
		c-2.05,0.01-2.85-2.17-3.6-3.81C1873.67,278.69,1876.73,266.91,1882.42,253.83z"/>
	<path class="st3" d="M1967.78,335.47c1.62-9,5.16-17.18,8.95-25.28c1-2.13,2.46-2.52,4.47-1.48c0.54,0.28,1.14,0.45,1.71,0.68
		c9.3,3.79,9.46,3.91,3.39,11.8C1981.52,327.42,1978.16,335.71,1967.78,335.47z"/>
	<path class="st3" d="M1786.58,331.42c-1.99-2.52-3.97-5.03-5.96-7.55c-0.7-1.01-1.55-1.94-2.05-3.04c-1.14-2.5-5.41-4.45-3.6-7.11
		c2.27-3.31,6.85-4.16,10.76-5.39c1.53-0.48,2.23,0.65,2.77,1.78c3.92,8.07,7.26,16.34,9.63,26.18
		C1793.53,334.77,1789.44,334.81,1786.58,331.42z"/>
	<path class="st63" d="M1832.73,344.85c-0.56,2.78-2.74,2.54-4.77,2.55c-5.08,0.04-10.17,0.06-15.25,0.09
		c-0.99-1.29-1.97-2.57-3.6-4.68c6.96-0.53,13.17-1,19.39-1.48C1831.04,341.14,1832.22,342.59,1832.73,344.85z"/>
	<path class="st2" d="M2285.44,1148.9c-4.03-4.12-8.05-8.25-12.07-12.37c-5.28-7.9-9.6-16.33-13.87-24.8
		c-4.91-16.35-9.89-32.68-14.73-49.05c-9.49-32.13-32.46-48.83-63.85-55.86c-9.06-2.03-18.27-2.73-27.58-2.72
		c-9.27,0.01-18.45,0.7-27.6,2.49c-0.05-0.59-0.22-1.14-0.09-1.23c28.8-18.8,59.74-28.71,93.58-17.24
		c37.22,12.62,59.45,39.17,66.09,78.28c3.06,18.04,3.28,36.46,7.37,54.36c3.73,16.31,11.33,30.37,23.76,41.72
		c1.03,0.94,1.9,2.05,3.96,4.29C2306.4,1163.03,2295.65,1156.5,2285.44,1148.9z"/>
	<path class="st2" d="M2228.39,1171.3c-7.64-2.27-12.16-8.95-18.47-13.12c-4.76-3.14-9.19-6.79-13.76-10.21
		c-17.74-13.7-36.29-26.3-53.1-41.25c-16.2-14.4-28.92-31.43-40.42-49.55c-15.65-24.66-30.19-50.07-48.77-72.75
		c-4.69-5.72-9.75-11.14-14.62-16.72c-1.46-1.67-3.54-2.92-3.82-5.43c27.25,13.64,54.27,27.71,80.54,43.18
		c2.13,1.25,4.04,2.55,5.5,4.75c32.82,49.4,65.73,98.74,98.6,148.1C2222.92,1162.58,2225.62,1166.96,2228.39,1171.3z"/>
	<path class="st3" d="M2067.3,684.91c-9.67,5.97-19.48,11.41-31.08,12.94c-7.87,1.03-15.24-0.09-22.16-3.55
		c-6.06-3.03-12.06-6.34-17.64-10.17c-16.35-11.23-33.3-13.33-51.31-4.47c-0.9,0.44-1.88,0.73-3.83,1.46
		c2.08-8.78,7.01-14.01,14.52-16.73c9.47-3.43,18.95-2.71,28.37,0.68c9,3.24,16.88,8.58,25.03,13.34
		c18.27,10.67,37.23,12.13,57.03,5.23C2067.44,683.35,2067.79,683.77,2067.3,684.91z"/>
	<path class="st64" d="M2067.3,684.91c-0.36-0.42-0.71-0.84-1.07-1.26c1.17-0.98,2.33-1.98,4.12-1.64
		C2070.2,683.96,2068.69,684.38,2067.3,684.91z"/>
	<path class="st65" d="M1660.87,2227.61c4.2,10.25,7.86,19.29,11.62,28.28c1.17,2.78,0.36,3.69-2.54,3.64
		c-6.18-0.1-12.36-0.01-18.53-0.05c-1.52-0.01-3.79,0.49-2.61-2.41C1652.64,2247.62,1656.53,2238.19,1660.87,2227.61z"/>
	<path class="st0" d="M1738.77,2096.63c0-14.79,0.04-28.71-0.04-42.63c-0.01-2.44,0.9-3.26,3.24-3.18
		c4.11,0.15,8.26-0.22,12.32,0.22c6.54,0.72,12.64,2.69,15.19,9.67c2.69,7.38,1.32,14.17-3.92,20.05c-2.34,2.63-5.23,4.61-8.35,6.24
		C1751.4,2090.04,1745.59,2093.07,1738.77,2096.63z"/>
	<path class="st65" d="M2011.59,2093.29c4.34,10.61,8.18,20.07,12.08,29.51c0.8,1.94,0.8,3.14-1.8,3.12
		c-6.59-0.05-13.18-0.05-19.77,0c-3.1,0.02-2.66-1.51-1.86-3.56C2003.9,2113.1,2007.49,2103.81,2011.59,2093.29z"/>
	<path class="st66" d="M2286.63,2238.42c0-10.89,0.09-20.75-0.05-30.59c-0.04-2.87,0.75-4.17,3.78-3.92
		c2.65,0.21,5.34,0.08,8.01,0.11c5.71,0.07,10.7,1.43,12.58,7.67c2.16,7.15,0.08,13.28-6.23,17.08
		C2299.15,2232.11,2293.25,2234.91,2286.63,2238.42z"/>
	<path class="st0" d="M1877.13,2107.57c-0.03,12.05-0.84,21.46-4.86,30.28c-3.83,8.4-9.99,13.39-19.63,13.33
		c-9.67-0.06-16.22-5.05-19.34-13.66c-6.61-18.23-6.64-36.76,0.07-54.99c3.28-8.9,10.04-14.04,19.82-13.97
		c9.79,0.07,16.13,5.46,19.69,14.25C1876.42,2091.54,1877.23,2100.75,1877.13,2107.57z"/>
	<path class="st67" d="M1556.23,1757.6c0.11,3.86-3.19,5.82-6.32,3.63c-3.13-2.2-5.74-5.14-8.57-7.78
		c-1.46-1.36-0.87-2.59,0.45-3.52c1.86-1.3,3.36-5.09,5.66-3.36C1551.24,1749.43,1555,1752.85,1556.23,1757.6z"/>
	<path class="st68" d="M1568.66,1743.53c-0.04,2.33-1.68,3.73-4.15,4.1c-2.1,0.31-10.63-6.92-10.34-8.97c0.4-2.88,2.96-4.4,5.29-5.5
		C1561.15,1732.35,1568.47,1740.57,1568.66,1743.53z"/>
	<path class="st69" d="M2215.24,1815.57c-0.99,0.01-7.15-7.67-7.13-8.88c0.03-1.72,9.48-7.89,12.05-7.68
		c3.31,0.27,5.22,2.32,5.61,5.52C2226.14,1807.54,2218.34,1815.55,2215.24,1815.57z"/>
	<path class="st1" d="M2143.05,1866.5c0,7.18-5.59,12.82-12.85,12.95c-7.52,0.14-13.7-6.42-13.6-14.42
		c0.09-7.14,5.94-12.91,13-12.82C2136.31,1852.29,2143.05,1859.46,2143.05,1866.5z"/>
	<path class="st70" d="M1935.08,1899.06c1.97,4.63,3.39,7.91,4.75,11.22c0.39,0.94,0.71,2.43-0.46,2.59
		c-2.59,0.36-5.3,0.47-7.89,0.14c-1.72-0.22-1.03-1.84-0.61-2.96C1932.07,1906.87,1933.3,1903.71,1935.08,1899.06z"/>
	<path class="st71" d="M1637.82,1809.13c0.24,1.34,0.53,1.95,0.42,2.46c-0.8,3.55-1.69,7.08-2.67,11.07
		c-3.37-1.26-8.33-3.5-7.87-5.45C1628.7,1812.91,1634.25,1812.24,1637.82,1809.13z"/>
	<path class="st72" d="M1448.11,1495.03c-0.02,0.23-0.14,0.47-0.35,0.69c-2.73-0.85-5.39-1.83-8-2.93c-0.05-0.01-0.1-0.04-0.15-0.06
		c-8.31-3.5-16.05-8.09-23.54-13.11c-2.62-1.74-5.21-3.54-7.79-5.37c-0.31-0.32-0.43-0.64-0.33-0.96c0-0.02,0-0.04,0.01-0.06
		c0.11-0.33,0.22-0.51,0.33-0.51c12.98,7.53,25.45,16.01,39.54,21.48C1448.04,1494.47,1448.14,1494.75,1448.11,1495.03z"/>
	<path class="st73" d="M1518.28,1503.84c-14.48,1.11-28.89,1.18-43.19-1.05c-0.02,0-0.05,0-0.07-0.01c-2.45-0.37-4.9-0.83-7.34-1.35
		c-0.06-0.32-0.09-0.61-0.06-0.83c0.09-0.57,0.52-0.78,1.42-0.48c5.73,0.56,11.47,1.1,17.21,1.66c1.88,0.72,3.8,1.03,5.72,1.14h0.09
		c1.34,0.07,2.67,0.05,4.01,0c2.71-0.1,5.42-0.31,8.12-0.07c0.07,0,0.15,0,0.22,0.01c1.98,0.19,4,0.01,6-0.07
		c1.18-0.06,2.34-0.1,3.5,0c1.16,0.07,2.33,0.28,3.48,0.69C1517.67,1503.58,1517.98,1503.7,1518.28,1503.84z"/>
	<path class="st74" d="M1469.04,1500.11c-0.22,0.21-0.45,0.42-0.66,0.63c-0.24,0.22-0.47,0.46-0.71,0.68
		c-1.4-0.22-2.78-0.47-4.17-0.74c-4.27-0.83-8.46-1.92-12.51-3.53c-1.09-0.45-2.18-0.92-3.24-1.44c0.01-0.26,0.02-0.52,0.04-0.79
		c0.01-0.25,0.02-0.49,0.02-0.74C1454.9,1496.17,1461.96,1498.14,1469.04,1500.11z"/>
	<path class="st75" d="M1408.28,1472.71c0,0.51-0.01,1.02-0.01,1.53c-1.67-1.18-3.34-2.37-5.01-3.55c0.4-0.38,0.79-0.76,1.19-1.14
		C1406.03,1470.23,1407.32,1471.27,1408.28,1472.71z"/>
	<rect x="1356.75" y="2381.6" class="st76" width="1136.3" height="28.8"/>
</g>
</svg>
